<?xml version="1.0" encoding="iso-8859-1"?>
<!-- Generator: Adobe Illustrator 18.0.0, SVG Export Plug-In . SVG Version: 6.00 Build 0)  -->
<!DOCTYPE svg PUBLIC "-//W3C//DTD SVG 1.1//EN" "http://www.w3.org/Graphics/SVG/1.1/DTD/svg11.dtd">
<svg version="1.1" id="Capa_1" xmlns="http://www.w3.org/2000/svg" xmlns:xlink="http://www.w3.org/1999/xlink" x="0px" y="0px"
	 viewBox="0 0 161.962 161.962" style="enable-background:new 0 0 161.962 161.962;" xml:space="preserve">
<g>
	<path style="fill:#1D1D1B;" d="M161.318,133.309l-9.114-20.548l0-37.911h-0.055c-1.486-37.97-32.843-68.406-71.168-68.406
		c-38.312,0-69.679,30.438-71.168,68.406H9.758l0,37.91l-9.114,20.549c-1.029,2.32-0.815,5.003,0.569,7.13s3.75,3.411,6.287,3.411
		h57.118c2.355,6.78,8.792,11.667,16.363,11.667s14.008-4.888,16.363-11.667h57.118c2.538,0,4.903-1.283,6.287-3.411
		S162.347,135.629,161.318,133.309z M80.981,21.444c30.996,0,56.217,25.217,56.223,56.211c0,6.016,0,20.33,0,29.195H24.758l0-29.241
		C24.789,46.64,50.01,21.444,80.981,21.444z M19.031,128.85l3.105-7h117.69l3.105,7H19.031z"/>
</g>
<g>
</g>
<g>
</g>
<g>
</g>
<g>
</g>
<g>
</g>
<g>
</g>
<g>
</g>
<g>
</g>
<g>
</g>
<g>
</g>
<g>
</g>
<g>
</g>
<g>
</g>
<g>
</g>
<g>
</g>
</svg>
