<?xml version="1.0" encoding="iso-8859-1"?>
<!-- Generator: Adobe Illustrator 18.0.0, SVG Export Plug-In . SVG Version: 6.00 Build 0)  -->
<!DOCTYPE svg PUBLIC "-//W3C//DTD SVG 1.1//EN" "http://www.w3.org/Graphics/SVG/1.1/DTD/svg11.dtd">
<svg version="1.1" id="Capa_1" xmlns="http://www.w3.org/2000/svg" xmlns:xlink="http://www.w3.org/1999/xlink" x="0px" y="0px"
	 viewBox="0 0 189.719 189.719" style="enable-background:new 0 0 189.719 189.719;" xml:space="preserve">
<path style="fill:#1D1D1B;" d="M151.803,56.944H35.192c-4.143,0-7.5,3.358-7.5,7.5s3.357,7.5,7.5,7.5h116.61
	c12.636,0,22.916,10.28,22.916,22.915c0,12.636-10.28,22.916-22.916,22.916h-128.3c-4.688,0-8.503-3.814-8.503-8.503
	s3.814-8.503,8.503-8.503h129.652c4.143,0,7.5-3.358,7.5-7.5s-3.357-7.5-7.5-7.5H23.503C10.543,85.769,0,96.312,0,109.272
	s10.543,23.503,23.503,23.503h128.3c20.907,0,37.916-17.009,37.916-37.916C189.719,73.953,172.71,56.944,151.803,56.944z"/>
<g>
</g>
<g>
</g>
<g>
</g>
<g>
</g>
<g>
</g>
<g>
</g>
<g>
</g>
<g>
</g>
<g>
</g>
<g>
</g>
<g>
</g>
<g>
</g>
<g>
</g>
<g>
</g>
<g>
</g>
</svg>
