<?xml version="1.0" encoding="iso-8859-1"?>
<!-- Generator: Adobe Illustrator 18.0.0, SVG Export Plug-In . SVG Version: 6.00 Build 0)  -->
<!DOCTYPE svg PUBLIC "-//W3C//DTD SVG 1.1//EN" "http://www.w3.org/Graphics/SVG/1.1/DTD/svg11.dtd">
<svg version="1.1" id="Capa_1" xmlns="http://www.w3.org/2000/svg" xmlns:xlink="http://www.w3.org/1999/xlink" x="0px" y="0px"
	 viewBox="0 0 196.751 196.751" style="enable-background:new 0 0 196.751 196.751;" xml:space="preserve">
<g>
	<path style="fill:#1D1D1B;" d="M154.344,34.319l10.634-10.634c-36.203-31.102-89.815-31.578-126.53-1.39l10.674,10.674
		C79.907,8.559,124.053,9.009,154.344,34.319z"/>
	<polygon style="fill:#1D1D1B;" points="170.504,39.372 170.509,39.367 170.499,39.376 	"/>
	<path style="fill:#1D1D1B;" d="M47.462,162.414l-10.634,10.634c18.372,15.783,41.216,23.703,64.076,23.703
		c23.532,0,47.06-8.369,65.696-25.094l-10.634-10.634C125.106,188.174,78.847,188.638,47.462,162.414z"/>
	<path style="fill:#1D1D1B;" d="M38.246,43.305L27.612,32.671C-5.36,69.41-5.809,125.159,26.221,162.442l10.634-10.634
		C10.631,120.423,11.095,74.163,38.246,43.305z"/>
	<path style="fill:#1D1D1B;" d="M62.523,147.352l-10.676,10.676c14.2,11.694,31.623,17.547,49.056,17.547
		c18.099,0,36.193-6.327,50.675-18.937l-10.634-10.634C118.423,164.96,85.538,165.408,62.523,147.352z"/>
	<polygon style="fill:#1D1D1B;" points="155.523,54.353 155.528,54.348 155.518,54.357 	"/>
	<path style="fill:#1D1D1B;" d="M41.241,147.421l10.676-10.676c-18.056-23.015-17.607-55.9,1.349-78.421L42.632,47.691
		C17.878,76.119,17.406,118.475,41.241,147.421z"/>
	<path style="fill:#1D1D1B;" d="M53.531,37.377l10.696,10.696c22.34-16.311,53.165-15.867,75.055,1.307l10.676-10.676
		C122.113,15.776,81.86,15.344,53.531,37.377z"/>
	<path style="fill:#1D1D1B;" d="M119.897,79.372c1.464,1.464,3.384,2.197,5.303,2.197s3.839-0.732,5.303-2.197l25.015-25.015
		l0.01-0.01l14.971-14.971l0.01-0.01l21.51-21.51c2.929-2.929,2.929-7.678,0-10.606c-2.929-2.929-7.678-2.929-10.606,0
		l-16.434,16.434l-10.634,10.634l-4.386,4.386L139.282,49.38l-19.385,19.386C116.968,71.694,116.968,76.444,119.897,79.372z"/>
	<path style="fill:#1D1D1B;" d="M51.847,158.028l10.676-10.676l19.386-19.386c2.084-2.083,2.677-5.086,1.796-7.701l-6.944-5.095
		c-1.971-0.041-3.954,0.685-5.458,2.189l-19.386,19.386l-10.676,10.676l-4.386,4.386l-10.634,10.634L9.787,178.875
		c-2.929,2.929-2.929,7.678,0,10.606c1.464,1.464,3.384,2.197,5.303,2.197s3.839-0.732,5.303-2.197l16.434-16.434l10.634-10.634
		L51.847,158.028z"/>
	<path style="fill:#1D1D1B;" d="M140.944,146.003l10.634,10.634l4.386,4.386l10.634,10.634l7.924,7.924
		c1.464,1.464,3.384,2.197,5.303,2.197s3.839-0.732,5.303-2.197c2.929-2.929,2.929-7.678,0-10.606l-61.713-61.713l-21.193,0.02
		L140.944,146.003z"/>
	<path style="fill:#1D1D1B;" d="M49.122,32.968L38.448,22.294l-9.589-9.589c-2.929-2.929-7.678-2.929-10.606,0
		c-2.929,2.929-2.929,7.678,0,10.606l9.36,9.36l10.634,10.634l4.386,4.386l10.634,10.634L78.241,83.3l12.101-9.112L64.227,48.073
		L53.531,37.377L49.122,32.968z"/>
	<polygon style="fill:#1D1D1B;" points="108.43,92.276 101.053,84.899 91.236,92.292 	"/>
	<path style="fill:#1D1D1B;" d="M73.775,86.663c-4.204,3.165-6.596,7.998-6.563,13.26s2.485,10.065,6.728,13.178l2.821,2.07
		l6.944,5.095l15.477,11.355c1.337,0.98,2.891,1.453,4.431,1.453c2.307,0,4.583-1.061,6.053-3.064
		c2.45-3.34,1.729-8.034-1.611-10.484L91.38,107.292l10.843-0.01l21.193-0.02l24.375-0.022c4.142-0.004,7.497-3.365,7.493-7.507
		c-0.004-4.14-3.361-7.493-7.5-7.493c-0.002,0-0.005,0-0.007,0l-39.347,0.036l-17.194,0.016l9.817-7.393l6.982-5.257
		c3.309-2.492,3.971-7.194,1.479-10.503c-2.491-3.308-7.193-3.972-10.503-1.479l-8.67,6.529L78.241,83.3L73.775,86.663z"/>
</g>
<g>
</g>
<g>
</g>
<g>
</g>
<g>
</g>
<g>
</g>
<g>
</g>
<g>
</g>
<g>
</g>
<g>
</g>
<g>
</g>
<g>
</g>
<g>
</g>
<g>
</g>
<g>
</g>
<g>
</g>
</svg>
