<?xml version="1.0" encoding="iso-8859-1"?>
<!-- Generator: Adobe Illustrator 18.0.0, SVG Export Plug-In . SVG Version: 6.00 Build 0)  -->
<!DOCTYPE svg PUBLIC "-//W3C//DTD SVG 1.1//EN" "http://www.w3.org/Graphics/SVG/1.1/DTD/svg11.dtd">
<svg version="1.1" id="Capa_1" xmlns="http://www.w3.org/2000/svg" xmlns:xlink="http://www.w3.org/1999/xlink" x="0px" y="0px"
	 viewBox="0 0 145.317 145.317" style="enable-background:new 0 0 145.317 145.317;" xml:space="preserve">
<g>
	<path style="fill:#1D1D1B;" d="M72.658,0c-4.143,0-7.5,3.357-7.5,7.5v22.383c0,4.143,3.357,7.5,7.5,7.5s7.5-3.357,7.5-7.5V7.5
		C80.158,3.357,76.801,0,72.658,0z"/>
	<path style="fill:#1D1D1B;" d="M102.906,49.912c1.919,0,3.839-0.732,5.304-2.196l19.362-19.362c2.929-2.93,2.929-7.678,0-10.607
		c-2.93-2.928-7.678-2.928-10.607,0L97.603,37.108c-2.929,2.93-2.929,7.678,0,10.607C99.067,49.18,100.987,49.912,102.906,49.912z"
		/>
	<path style="fill:#1D1D1B;" d="M137.817,65.159h-22.383c-4.143,0-7.5,3.357-7.5,7.5s3.357,7.5,7.5,7.5h22.383
		c4.143,0,7.5-3.357,7.5-7.5S141.96,65.159,137.817,65.159z"/>
	<path style="fill:#1D1D1B;" d="M108.21,97.603c-2.93-2.928-7.678-2.928-10.607,0c-2.929,2.93-2.929,7.678,0,10.607l19.362,19.362
		c1.465,1.464,3.385,2.196,5.304,2.196s3.839-0.732,5.304-2.196c2.929-2.93,2.929-7.678,0-10.607L108.21,97.603z"/>
	<path style="fill:#1D1D1B;" d="M72.658,107.936c-4.143,0-7.5,3.357-7.5,7.5v22.382c0,4.143,3.357,7.5,7.5,7.5s7.5-3.357,7.5-7.5
		v-22.382C80.158,111.293,76.801,107.936,72.658,107.936z"/>
	<path style="fill:#1D1D1B;" d="M37.107,97.603l-19.362,19.362c-2.929,2.93-2.929,7.678,0,10.607
		c1.465,1.464,3.385,2.196,5.304,2.196s3.839-0.732,5.304-2.196l19.362-19.362c2.929-2.93,2.929-7.678,0-10.607
		C44.785,94.675,40.037,94.675,37.107,97.603z"/>
	<path style="fill:#1D1D1B;" d="M37.382,72.659c0-4.143-3.357-7.5-7.5-7.5H7.5c-4.143,0-7.5,3.357-7.5,7.5s3.357,7.5,7.5,7.5h22.382
		C34.024,80.159,37.382,76.802,37.382,72.659z"/>
	<path style="fill:#1D1D1B;" d="M28.353,17.746c-2.93-2.928-7.678-2.928-10.607,0c-2.929,2.93-2.929,7.678,0,10.607l19.362,19.362
		c1.465,1.464,3.385,2.196,5.304,2.196s3.839-0.732,5.304-2.196c2.929-2.93,2.929-7.678,0-10.607L28.353,17.746z"/>
</g>
<g>
</g>
<g>
</g>
<g>
</g>
<g>
</g>
<g>
</g>
<g>
</g>
<g>
</g>
<g>
</g>
<g>
</g>
<g>
</g>
<g>
</g>
<g>
</g>
<g>
</g>
<g>
</g>
<g>
</g>
</svg>
