<?xml version="1.0" encoding="iso-8859-1"?>
<!-- Generator: Adobe Illustrator 18.0.0, SVG Export Plug-In . SVG Version: 6.00 Build 0)  -->
<!DOCTYPE svg PUBLIC "-//W3C//DTD SVG 1.1//EN" "http://www.w3.org/Graphics/SVG/1.1/DTD/svg11.dtd">
<svg version="1.1" id="Capa_1" xmlns="http://www.w3.org/2000/svg" xmlns:xlink="http://www.w3.org/1999/xlink" x="0px" y="0px"
	 viewBox="0 0 154.641 154.641" style="enable-background:new 0 0 154.641 154.641;" xml:space="preserve">
<g>
	<path style="fill:#1D1D1B;" d="M122.177,43.578C121.479,19.432,101.633,0,77.321,0C53.008,0,33.162,19.432,32.463,43.578
		c-5.638,3.494-9.413,9.72-9.413,16.826v74.434c0,10.919,8.884,19.803,19.803,19.803h68.935c10.919,0,19.803-8.884,19.803-19.803
		V60.404C131.59,53.298,127.815,47.072,122.177,43.578z M77.321,15c15.025,0,27.491,11.145,29.577,25.602H47.742
		C49.829,26.145,62.296,15,77.321,15z M116.59,134.838c0,2.648-2.154,4.803-4.803,4.803H42.853c-2.648,0-4.803-2.154-4.803-4.803
		V60.404c0-2.648,2.154-4.803,4.803-4.803h68.935c2.648,0,4.803,2.154,4.803,4.803V134.838z"/>
	<path style="fill:#1D1D1B;" d="M77.321,73.693c-4.143,0-7.5,3.357-7.5,7.5v32.856c0,4.143,3.357,7.5,7.5,7.5s7.5-3.357,7.5-7.5
		V81.193C84.821,77.051,81.463,73.693,77.321,73.693z"/>
</g>
<g>
</g>
<g>
</g>
<g>
</g>
<g>
</g>
<g>
</g>
<g>
</g>
<g>
</g>
<g>
</g>
<g>
</g>
<g>
</g>
<g>
</g>
<g>
</g>
<g>
</g>
<g>
</g>
<g>
</g>
</svg>
