<?xml version="1.0" encoding="iso-8859-1"?>
<!-- Generator: Adobe Illustrator 18.0.0, SVG Export Plug-In . SVG Version: 6.00 Build 0)  -->
<!DOCTYPE svg PUBLIC "-//W3C//DTD SVG 1.1//EN" "http://www.w3.org/Graphics/SVG/1.1/DTD/svg11.dtd">
<svg version="1.1" id="Capa_1" xmlns="http://www.w3.org/2000/svg" xmlns:xlink="http://www.w3.org/1999/xlink" x="0px" y="0px"
	 viewBox="0 0 196.861 196.861" style="enable-background:new 0 0 196.861 196.861;" xml:space="preserve">
<g>
	<path style="fill:#1D1D1B;" d="M98.431,0C44.156,0,0,44.156,0,98.431s44.156,98.431,98.431,98.431s98.431-44.156,98.431-98.431
		S152.706,0,98.431,0z M98.431,181.861C52.427,181.861,15,144.435,15,98.431S52.427,15,98.431,15s83.431,37.427,83.431,83.431
		S144.435,181.861,98.431,181.861z"/>
	<path style="fill:#1D1D1B;" d="M98.431,38.95c-32.798,0-59.481,26.683-59.481,59.481s26.683,59.481,59.481,59.481
		s59.481-26.683,59.481-59.481S131.229,38.95,98.431,38.95z M98.431,142.912c-24.527,0-44.481-19.954-44.481-44.481
		S73.904,53.95,98.431,53.95s44.481,19.954,44.481,44.481S122.958,142.912,98.431,142.912z"/>
</g>
<g>
</g>
<g>
</g>
<g>
</g>
<g>
</g>
<g>
</g>
<g>
</g>
<g>
</g>
<g>
</g>
<g>
</g>
<g>
</g>
<g>
</g>
<g>
</g>
<g>
</g>
<g>
</g>
<g>
</g>
</svg>
