<?xml version="1.0" encoding="iso-8859-1"?>
<!-- Generator: Adobe Illustrator 18.0.0, SVG Export Plug-In . SVG Version: 6.00 Build 0)  -->
<!DOCTYPE svg PUBLIC "-//W3C//DTD SVG 1.1//EN" "http://www.w3.org/Graphics/SVG/1.1/DTD/svg11.dtd">
<svg version="1.1" id="Capa_1" xmlns="http://www.w3.org/2000/svg" xmlns:xlink="http://www.w3.org/1999/xlink" x="0px" y="0px"
	 viewBox="0 0 168 168" style="enable-background:new 0 0 168 168;" xml:space="preserve">
<g>
	<path style="fill:#1D1D1B;" d="M144.746,13.111H23.254C10.432,13.111,0,23.542,0,36.365v95.271
		c0,12.822,10.432,23.254,23.254,23.254h121.492c12.822,0,23.254-10.432,23.254-23.254V36.365
		C168,23.542,157.568,13.111,144.746,13.111z M153,131.635c0,4.551-3.703,8.254-8.254,8.254H23.254
		c-4.551,0-8.254-3.703-8.254-8.254V56.5h138V131.635z M153,41.5H15v-5.135c0-4.551,3.703-8.254,8.254-8.254h121.492
		c4.551,0,8.254,3.703,8.254,8.254V41.5z"/>
	<path style="fill:#1D1D1B;" d="M51.5,126h21c4.143,0,7.5-3.358,7.5-7.5V78c0-4.142-3.357-7.5-7.5-7.5h-21
		c-4.143,0-7.5,3.358-7.5,7.5v40.5C44,122.642,47.357,126,51.5,126z M59,85.5h6V111h-6V85.5z"/>
	<path style="fill:#1D1D1B;" d="M93.5,108.5H107v10c0,4.142,3.357,7.5,7.5,7.5s7.5-3.358,7.5-7.5V78c0-4.142-3.357-7.5-7.5-7.5
		S107,73.858,107,78v15.5h-6V78c0-4.142-3.357-7.5-7.5-7.5S86,73.858,86,78v23C86,105.142,89.357,108.5,93.5,108.5z"/>
</g>
<g>
</g>
<g>
</g>
<g>
</g>
<g>
</g>
<g>
</g>
<g>
</g>
<g>
</g>
<g>
</g>
<g>
</g>
<g>
</g>
<g>
</g>
<g>
</g>
<g>
</g>
<g>
</g>
<g>
</g>
</svg>
