<?xml version="1.0" encoding="iso-8859-1"?>
<!-- Generator: Adobe Illustrator 18.0.0, SVG Export Plug-In . SVG Version: 6.00 Build 0)  -->
<!DOCTYPE svg PUBLIC "-//W3C//DTD SVG 1.1//EN" "http://www.w3.org/Graphics/SVG/1.1/DTD/svg11.dtd">
<svg version="1.1" id="Capa_1" xmlns="http://www.w3.org/2000/svg" xmlns:xlink="http://www.w3.org/1999/xlink" x="0px" y="0px"
	 viewBox="0 0 163.223 163.223" style="enable-background:new 0 0 163.223 163.223;" xml:space="preserve">
<g>
	<path style="fill:#1D1D1B;" d="M86.611,20.971V15h4.5c4.142,0,7.5-3.357,7.5-7.5S95.253,0,91.111,0h-19c-4.142,0-7.5,3.357-7.5,7.5
		s3.358,7.5,7.5,7.5h4.5v5.971C39.666,23.549,10.388,54.41,10.388,92c0,39.272,31.951,71.223,71.223,71.223
		s71.223-31.95,71.223-71.223C152.834,54.41,123.557,23.549,86.611,20.971z M124.722,128.04l-10.031-10.031
		c-1.953-1.953-5.118-1.953-7.071,0c-1.953,1.952-1.953,5.118,0,7.07l10.031,10.031c-8.564,7.171-19.288,11.837-31.04,12.878
		v-14.206c0-2.762-2.239-5-5-5s-5,2.238-5,5v14.206c-11.752-1.041-22.475-5.706-31.04-12.878l10.03-10.029
		c1.953-1.952,1.953-5.118,0-7.07c-1.952-1.952-5.117-1.953-7.071,0L38.501,128.04c-7.172-8.564-11.837-19.287-12.878-31.04h14.205
		c2.761,0,5-2.238,5-5s-2.239-5-5-5H25.623c1.041-11.752,5.706-22.476,12.878-31.041l10.028,10.028
		c0.977,0.977,2.256,1.465,3.536,1.465s2.559-0.488,3.536-1.465c1.953-1.952,1.953-5.118,0-7.07L45.571,48.889
		c8.564-7.172,19.288-11.837,31.04-12.878v14.207c0,2.762,2.239,5,5,5s5-2.238,5-5V36.011c11.752,1.041,22.476,5.707,31.04,12.878
		l-10.03,10.03c-1.953,1.952-1.953,5.118,0,7.07c0.977,0.977,2.256,1.465,3.536,1.465s2.559-0.488,3.536-1.465l10.029-10.03
		c7.172,8.564,11.837,19.288,12.878,31.04h-14.205c-2.761,0-5,2.238-5,5s2.239,5,5,5H137.6
		C136.559,108.752,131.894,119.475,124.722,128.04z"/>
</g>
<g>
</g>
<g>
</g>
<g>
</g>
<g>
</g>
<g>
</g>
<g>
</g>
<g>
</g>
<g>
</g>
<g>
</g>
<g>
</g>
<g>
</g>
<g>
</g>
<g>
</g>
<g>
</g>
<g>
</g>
</svg>
