<?xml version="1.0" encoding="iso-8859-1"?>
<!-- Generator: Adobe Illustrator 18.0.0, SVG Export Plug-In . SVG Version: 6.00 Build 0)  -->
<!DOCTYPE svg PUBLIC "-//W3C//DTD SVG 1.1//EN" "http://www.w3.org/Graphics/SVG/1.1/DTD/svg11.dtd">
<svg version="1.1" id="Capa_1" xmlns="http://www.w3.org/2000/svg" xmlns:xlink="http://www.w3.org/1999/xlink" x="0px" y="0px"
	 viewBox="0 0 224.86 224.86" style="enable-background:new 0 0 224.86 224.86;" xml:space="preserve">
<g>
	<path style="fill:#1D1D1B;" d="M177.895,116.01h-8.228c-6.527-30.791-33.747-53.257-65.885-53.257
		c-32.514,0-59.951,22.947-66.089,54.264c-9.026,1.868-17.306,6.282-23.921,12.858C4.891,138.704,0,150.459,0,162.974
		c0,25.874,21.065,46.942,46.965,46.965h130.93c25.897,0,46.965-21.068,46.965-46.965S203.792,116.01,177.895,116.01z
		 M103.782,77.753c23.88,0,44.259,15.954,50.443,38.257H53.339C59.519,93.7,79.882,77.753,103.782,77.753z M177.895,194.939H46.971
		C29.342,194.925,15,180.585,15,162.974c0-16.911,12.938-30.5,29.844-31.851c0.076-0.006,0.152-0.012,0.227-0.021
		c0.647-0.047,1.297-0.082,1.955-0.093h130.869c17.626,0,31.965,14.339,31.965,31.965S195.521,194.939,177.895,194.939z"/>
	<path style="fill:#1D1D1B;" d="M103.774,54.803c4.142,0,7.5-3.357,7.5-7.5V22.421c0-4.143-3.358-7.5-7.5-7.5s-7.5,3.357-7.5,7.5
		v24.883C96.274,51.446,99.632,54.803,103.774,54.803z"/>
	<path style="fill:#1D1D1B;" d="M160.32,77.944c1.919,0,3.839-0.732,5.303-2.196l16.716-16.716c2.929-2.93,2.929-7.678,0-10.607
		c-2.928-2.928-7.677-2.928-10.606,0L155.017,65.14c-2.929,2.93-2.929,7.678,0,10.607C156.481,77.212,158.401,77.944,160.32,77.944z
		"/>
	<path style="fill:#1D1D1B;" d="M41.246,74.107c1.464,1.464,3.384,2.196,5.303,2.196s3.839-0.732,5.303-2.196
		c2.929-2.93,2.929-7.678,0-10.607L35.136,46.784c-2.929-2.928-7.678-2.928-10.606,0c-2.929,2.93-2.929,7.678,0,10.607
		L41.246,74.107z"/>
</g>
<g>
</g>
<g>
</g>
<g>
</g>
<g>
</g>
<g>
</g>
<g>
</g>
<g>
</g>
<g>
</g>
<g>
</g>
<g>
</g>
<g>
</g>
<g>
</g>
<g>
</g>
<g>
</g>
<g>
</g>
</svg>
