<?xml version="1.0" encoding="iso-8859-1"?>
<!-- Generator: Adobe Illustrator 18.0.0, SVG Export Plug-In . SVG Version: 6.00 Build 0)  -->
<!DOCTYPE svg PUBLIC "-//W3C//DTD SVG 1.1//EN" "http://www.w3.org/Graphics/SVG/1.1/DTD/svg11.dtd">
<svg version="1.1" id="Capa_1" xmlns="http://www.w3.org/2000/svg" xmlns:xlink="http://www.w3.org/1999/xlink" x="0px" y="0px"
	 viewBox="0 0 184 184" style="enable-background:new 0 0 184 184;" xml:space="preserve">
<g>
	<path style="fill:#1D1D1B;" d="M160.746,24.61H23.254C10.432,24.61,0,35.042,0,47.864v88.271c0,12.822,10.432,23.254,23.254,23.254
		h137.492c12.822,0,23.254-10.432,23.254-23.254V47.864C184,35.042,173.568,24.61,160.746,24.61z M23.254,39.61h137.492
		c4.551,0,8.254,3.703,8.254,8.254v68.823H15V47.864C15,43.313,18.703,39.61,23.254,39.61z M160.746,144.39H23.254
		c-4.551,0-8.254-3.703-8.254-8.254v-4.448h154v4.448C169,140.687,165.297,144.39,160.746,144.39z"/>
</g>
<g>
</g>
<g>
</g>
<g>
</g>
<g>
</g>
<g>
</g>
<g>
</g>
<g>
</g>
<g>
</g>
<g>
</g>
<g>
</g>
<g>
</g>
<g>
</g>
<g>
</g>
<g>
</g>
<g>
</g>
</svg>
