<?xml version="1.0" encoding="iso-8859-1"?>
<!-- Generator: Adobe Illustrator 18.0.0, SVG Export Plug-In . SVG Version: 6.00 Build 0)  -->
<!DOCTYPE svg PUBLIC "-//W3C//DTD SVG 1.1//EN" "http://www.w3.org/Graphics/SVG/1.1/DTD/svg11.dtd">
<svg version="1.1" id="Capa_1" xmlns="http://www.w3.org/2000/svg" xmlns:xlink="http://www.w3.org/1999/xlink" x="0px" y="0px"
	 viewBox="0 0 212 212" style="enable-background:new 0 0 212 212;" xml:space="preserve">
<g>
	<path style="fill:#1D1D1B;" d="M155.893,111.816H56.107c-15.316,0-27.776,12.46-27.776,27.776c0,15.316,12.46,27.776,27.776,27.776
		h99.785c15.316,0,27.776-12.46,27.776-27.776C183.669,124.277,171.208,111.816,155.893,111.816z M43.331,139.592
		c0-7.044,5.731-12.776,12.776-12.776h62.785c7.045,0,12.776,5.731,12.776,12.776c0,7.045-5.731,12.776-12.776,12.776H56.107
		C49.062,152.369,43.331,146.637,43.331,139.592z M155.893,152.369h-12.349c1.992-3.828,3.125-8.171,3.125-12.776
		c0-4.605-1.133-8.948-3.125-12.776h12.349c7.045,0,12.776,5.731,12.776,12.776C168.669,146.637,162.937,152.369,155.893,152.369z"
		/>
	<path style="fill:#1D1D1B;" d="M155.893,44.631H56.107c-15.316,0-27.776,12.46-27.776,27.776c0,15.315,12.46,27.776,27.776,27.776
		h99.785c15.316,0,27.776-12.46,27.776-27.776C183.669,57.092,171.208,44.631,155.893,44.631z M43.331,72.408
		c0-7.045,5.731-12.776,12.776-12.776h62.785c7.045,0,12.776,5.731,12.776,12.776c0,7.044-5.731,12.776-12.776,12.776H56.107
		C49.062,85.184,43.331,79.452,43.331,72.408z M155.893,85.184h-12.349c1.992-3.828,3.125-8.171,3.125-12.776
		c0-4.605-1.133-8.949-3.125-12.776h12.349c7.045,0,12.776,5.731,12.776,12.776C168.669,79.452,162.937,85.184,155.893,85.184z"/>
	<path style="fill:#1D1D1B;" d="M167.355,8.709H44.645C20.028,8.709,0,28.737,0,53.355v105.29c0,24.618,20.028,44.646,44.645,44.646
		h122.71c24.617,0,44.645-20.028,44.645-44.646V53.355C212,28.737,191.972,8.709,167.355,8.709z M197,158.645
		c0,16.347-13.299,29.646-29.645,29.646H44.645C28.299,188.291,15,174.992,15,158.645V53.355c0-16.347,13.299-29.646,29.645-29.646
		h122.71c16.346,0,29.645,13.299,29.645,29.646V158.645z"/>
</g>
<g>
</g>
<g>
</g>
<g>
</g>
<g>
</g>
<g>
</g>
<g>
</g>
<g>
</g>
<g>
</g>
<g>
</g>
<g>
</g>
<g>
</g>
<g>
</g>
<g>
</g>
<g>
</g>
<g>
</g>
</svg>
