<?xml version="1.0" encoding="iso-8859-1"?>
<!-- Generator: Adobe Illustrator 18.0.0, SVG Export Plug-In . SVG Version: 6.00 Build 0)  -->
<!DOCTYPE svg PUBLIC "-//W3C//DTD SVG 1.1//EN" "http://www.w3.org/Graphics/SVG/1.1/DTD/svg11.dtd">
<svg version="1.1" id="Capa_1" xmlns="http://www.w3.org/2000/svg" xmlns:xlink="http://www.w3.org/1999/xlink" x="0px" y="0px"
	 viewBox="0 0 149.497 149.497" style="enable-background:new 0 0 149.497 149.497;" xml:space="preserve">
<path style="fill:#1D1D1B;" d="M123.941,96.247H25.556c-12.227,0-22.173-9.946-22.173-22.172v-0.297
	c0-12.226,9.946-22.172,22.173-22.172h98.385c12.227,0,22.173,9.946,22.173,22.172v0.297
	C146.114,86.3,136.167,96.247,123.941,96.247z M25.556,66.605c-3.955,0-7.173,3.217-7.173,7.172v0.297
	c0,3.955,3.218,7.172,7.173,7.172h98.385c3.955,0,7.173-3.217,7.173-7.172v-0.297c0-3.955-3.218-7.172-7.173-7.172H25.556z"/>
<g>
	<path style="fill:#1D1D1B;" d="M74.748,44.642c-12.308,0-22.321-10.013-22.321-22.321S62.441,0,74.748,0S97.07,10.013,97.07,22.321
		S87.056,44.642,74.748,44.642z M74.748,15c-4.037,0-7.321,3.284-7.321,7.321s3.284,7.321,7.321,7.321s7.321-3.284,7.321-7.321
		S78.785,15,74.748,15z"/>
	<path style="fill:#1D1D1B;" d="M74.748,149.497c-12.308,0-22.321-10.013-22.321-22.321s10.014-22.321,22.321-22.321
		s22.321,10.013,22.321,22.321S87.056,149.497,74.748,149.497z M74.748,119.855c-4.037,0-7.321,3.284-7.321,7.321
		s3.284,7.321,7.321,7.321s7.321-3.284,7.321-7.321S78.785,119.855,74.748,119.855z"/>
</g>
<g>
</g>
<g>
</g>
<g>
</g>
<g>
</g>
<g>
</g>
<g>
</g>
<g>
</g>
<g>
</g>
<g>
</g>
<g>
</g>
<g>
</g>
<g>
</g>
<g>
</g>
<g>
</g>
<g>
</g>
</svg>
