<?xml version="1.0" encoding="iso-8859-1"?>
<!-- Generator: Adobe Illustrator 18.0.0, SVG Export Plug-In . SVG Version: 6.00 Build 0)  -->
<!DOCTYPE svg PUBLIC "-//W3C//DTD SVG 1.1//EN" "http://www.w3.org/Graphics/SVG/1.1/DTD/svg11.dtd">
<svg version="1.1" id="Capa_1" xmlns="http://www.w3.org/2000/svg" xmlns:xlink="http://www.w3.org/1999/xlink" x="0px" y="0px"
	 viewBox="0 0 174.848 174.848" style="enable-background:new 0 0 174.848 174.848;" xml:space="preserve">
<g>
	<path style="fill:#1D1D1B;" d="M142.35,87.487c-0.027-0.038-0.027-0.088,0-0.125l19.893-27.174
		c3.38-4.617,3.874-10.65,1.289-15.746c-2.593-5.111-7.736-8.286-13.424-8.286c-0.559,0-1.126,0.031-1.687,0.092l-33.494,3.642
		c0,0-0.066-0.001-0.095-0.063L101.245,9.012C98.795,3.454,93.499,0,87.424,0S76.053,3.454,73.603,9.012L60.016,39.825
		c-0.028,0.063-0.092,0.062-0.108,0.063l-33.479-3.641c-0.561-0.061-1.128-0.092-1.687-0.092c-5.688,0-10.831,3.175-13.425,8.287
		c-2.584,5.095-2.091,11.128,1.289,15.745l19.894,27.175c0.026,0.037,0.026,0.086-0.001,0.124l-19.893,27.174
		c-3.38,4.617-3.873,10.65-1.289,15.745c2.594,5.112,7.737,8.287,13.426,8.287c0.558,0,1.125-0.031,1.686-0.092l33.494-3.642
		c0,0,0.065,0.001,0.094,0.063l13.587,30.814c2.45,5.559,7.746,9.012,13.821,9.012s11.371-3.453,13.821-9.011l13.587-30.814
		c0.027-0.063,0.079-0.064,0.109-0.063l33.479,3.641c6.286,0.684,12.263-2.583,15.11-8.196c2.584-5.095,2.09-11.127-1.289-15.744
		L142.35,87.487z M150.042,123.688l-33.479-3.641c-0.542-0.059-1.092-0.089-1.636-0.089c-5.98,0-11.405,3.537-13.819,9.012
		l-13.591,30.863c-0.009,0.004-0.043,0.015-0.093,0.015l-0.097-0.063L73.74,128.97c-2.414-5.474-7.838-9.011-13.818-9.011
		c-0.544,0-1.094,0.03-1.636,0.089l-33.524,3.661c-0.038-0.026-0.089-0.114-0.053-0.188l19.892-27.173
		c3.909-5.338,3.909-12.511,0.001-17.847L24.669,51.3c0.004-0.045,0.056-0.134,0.138-0.14l33.479,3.641
		c0.541,0.059,1.092,0.089,1.636,0.089h0.001c5.979,0,11.402-3.537,13.817-9.012l13.587-30.814L87.424,15l0.097,0.063l13.587,30.815
		c2.415,5.474,7.839,9.011,13.819,9.011c0.544,0,1.095-0.03,1.636-0.089l33.524-3.661c0.037,0.026,0.088,0.114,0.052,0.188
		l-19.893,27.174c-3.906,5.336-3.906,12.508,0,17.846l19.933,27.201C150.175,123.594,150.123,123.683,150.042,123.688z"/>
</g>
<g>
</g>
<g>
</g>
<g>
</g>
<g>
</g>
<g>
</g>
<g>
</g>
<g>
</g>
<g>
</g>
<g>
</g>
<g>
</g>
<g>
</g>
<g>
</g>
<g>
</g>
<g>
</g>
<g>
</g>
</svg>
