<?xml version="1.0" encoding="iso-8859-1"?>
<!-- Generator: Adobe Illustrator 18.0.0, SVG Export Plug-In . SVG Version: 6.00 Build 0)  -->
<!DOCTYPE svg PUBLIC "-//W3C//DTD SVG 1.1//EN" "http://www.w3.org/Graphics/SVG/1.1/DTD/svg11.dtd">
<svg version="1.1" id="Capa_1" xmlns="http://www.w3.org/2000/svg" xmlns:xlink="http://www.w3.org/1999/xlink" x="0px" y="0px"
	 viewBox="0 0 196.751 196.751" style="enable-background:new 0 0 196.751 196.751;" xml:space="preserve">
<g>
	<path style="fill:#1D1D1B;" d="M47.462,162.414l-10.634,10.634c18.372,15.783,41.216,23.703,64.075,23.703
		c23.532,0,47.06-8.369,65.696-25.094l-10.634-10.634C125.106,188.174,78.846,188.638,47.462,162.414z"/>
	<path style="fill:#1D1D1B;" d="M154.344,34.319l10.634-10.634C128.775-7.418,75.163-7.894,38.448,22.294l10.674,10.674
		C79.907,8.559,124.053,9.009,154.344,34.319z"/>
	<polygon style="fill:#1D1D1B;" points="170.504,39.372 170.506,39.37 170.502,39.373 	"/>
	<path style="fill:#1D1D1B;" d="M38.246,43.305L27.612,32.67C-5.36,69.41-5.81,125.159,26.221,162.442l10.634-10.634
		C10.631,120.423,11.095,74.163,38.246,43.305z"/>
	<path style="fill:#1D1D1B;" d="M53.266,58.325L42.632,47.691c-24.755,28.428-25.227,70.785-1.391,99.731l10.676-10.676
		C33.86,113.731,34.309,80.846,53.266,58.325z"/>
	<polygon style="fill:#1D1D1B;" points="155.523,54.353 155.526,54.35 155.52,54.355 	"/>
	<path style="fill:#1D1D1B;" d="M53.531,37.377l10.696,10.696c22.34-16.311,53.165-15.866,75.055,1.308l10.676-10.676
		C122.114,15.776,81.862,15.343,53.531,37.377z"/>
	<path style="fill:#1D1D1B;" d="M62.523,147.352l-10.676,10.676c14.2,11.693,31.625,17.547,49.055,17.547
		c18.102,0,36.193-6.326,50.676-18.938l-10.634-10.634C118.423,164.959,85.538,165.408,62.523,147.352z"/>
	<path style="fill:#1D1D1B;" d="M155.526,54.35l14.977-14.976l0.003-0.003l21.513-21.513c2.929-2.929,2.929-7.678,0-10.606
		c-2.928-2.929-7.677-2.929-10.606,0l-16.434,16.434l-10.634,10.634l-4.386,4.386L139.282,49.38l-17.383,17.383
		c0.489,0.216,0.964,0.484,1.414,0.813l10.952,8.035l21.255-21.255L155.526,54.35z"/>
	<path style="fill:#1D1D1B;" d="M51.848,158.028l10.676-10.676l19.386-19.386c2.929-2.929,2.929-7.678,0-10.606
		c-2.929-2.929-7.678-2.929-10.606,0l-19.386,19.386l-10.676,10.676l-4.386,4.386l-10.634,10.634L9.788,178.875
		c-2.929,2.929-2.929,7.678,0,10.606c1.464,1.464,3.384,2.197,5.303,2.197s3.839-0.732,5.303-2.197l16.433-16.433l10.634-10.634
		L51.848,158.028z"/>
	<path style="fill:#1D1D1B;" d="M140.944,146.003l10.634,10.634l4.386,4.386l10.634,10.634l7.924,7.924
		c1.464,1.464,3.384,2.197,5.303,2.197s3.839-0.732,5.303-2.197c2.929-2.929,2.929-7.678,0-10.606l-47.837-47.837l-12.101,9.112
		L140.944,146.003z"/>
	<path style="fill:#1D1D1B;" d="M42.632,47.691l10.634,10.634l33.62,33.62l21.193-0.02L64.227,48.073L53.531,37.377l-4.409-4.409
		L38.448,22.294l-9.589-9.589c-2.929-2.929-7.678-2.929-10.606,0c-2.929,2.929-2.929,7.678,0,10.606l9.359,9.359l10.634,10.634
		L42.632,47.691z"/>
	<polygon style="fill:#1D1D1B;" points="126.581,110.427 123.065,106.911 101.872,106.931 114.481,119.539 	"/>
	<path style="fill:#1D1D1B;" d="M121.899,66.763c-3.149-1.39-6.949-0.467-9.07,2.424c-2.45,3.34-1.729,8.034,1.611,10.484
		l16.675,12.233l-23.036,0.021l-21.193,0.02l-12.181,0.011c-4.142,0.004-7.497,3.365-7.493,7.507c0.004,4.14,3.361,7.493,7.5,7.493
		c0.002,0,0.005,0,0.007,0l27.154-0.025l21.193-0.019l8.195-0.008l-4.679,3.523l-12.101,9.112l-0.02,0.015
		c-3.309,2.492-3.971,7.194-1.479,10.503c1.474,1.958,3.722,2.989,5.997,2.989c1.57,0,3.154-0.492,4.506-1.509l1.708-1.286
		l12.101-9.112l11.428-8.606c4.203-3.166,6.595-7.999,6.563-13.26c-0.033-5.262-2.485-10.065-6.728-13.178L134.265,75.61
		l-10.952-8.035C122.864,67.246,122.389,66.979,121.899,66.763z"/>
</g>
<g>
</g>
<g>
</g>
<g>
</g>
<g>
</g>
<g>
</g>
<g>
</g>
<g>
</g>
<g>
</g>
<g>
</g>
<g>
</g>
<g>
</g>
<g>
</g>
<g>
</g>
<g>
</g>
<g>
</g>
</svg>
