<?xml version="1.0" encoding="iso-8859-1"?>
<!-- Generator: Adobe Illustrator 18.0.0, SVG Export Plug-In . SVG Version: 6.00 Build 0)  -->
<!DOCTYPE svg PUBLIC "-//W3C//DTD SVG 1.1//EN" "http://www.w3.org/Graphics/SVG/1.1/DTD/svg11.dtd">
<svg version="1.1" id="Capa_1" xmlns="http://www.w3.org/2000/svg" xmlns:xlink="http://www.w3.org/1999/xlink" x="0px" y="0px"
	 viewBox="0 0 184 184" style="enable-background:new 0 0 184 184;" xml:space="preserve">
<g>
	<circle style="fill:#1D1D1B;" cx="134.475" cy="61.542" r="12.57"/>
	<path style="fill:#1D1D1B;" d="M160.746,24.61H23.254C10.432,24.61,0,35.042,0,47.864v88.271c0,12.822,10.432,23.254,23.254,23.254
		h137.492c12.822,0,23.254-10.432,23.254-23.254V47.864C184,35.042,173.568,24.61,160.746,24.61z M23.254,39.61h137.492
		c4.551,0,8.254,3.703,8.254,8.254v43.615c-0.501-0.21-1.005-0.422-1.52-0.64c-2.753-1.166-5.601-2.371-8.603-3.27
		c-7.004-2.098-13.012-2.097-20.01-0.001c-3.009,0.9-5.859,2.107-8.628,3.28c-2.498,1.058-4.858,2.057-7.083,2.723
		c-2.084,0.624-3.949,0.928-5.701,0.928c-1.753,0-3.618-0.304-5.702-0.928c-2.222-0.665-4.578-1.663-7.105-2.732
		c-2.753-1.166-5.601-2.371-8.603-3.27c-7.004-2.098-13.012-2.097-20.01-0.001c-3.002,0.898-5.845,2.102-8.628,3.28
		c-2.498,1.058-4.858,2.057-7.083,2.723c-2.084,0.624-3.948,0.928-5.701,0.928s-3.618-0.304-5.702-0.928
		c-2.224-0.666-4.584-1.665-7.105-2.732c-2.753-1.166-5.601-2.371-8.603-3.27C26.824,85.656,21.25,85.51,15,87.091V47.864
		C15,43.313,18.703,39.61,23.254,39.61z M160.746,144.39H23.254c-4.551,0-8.254-3.703-8.254-8.254v-33.333
		c0.852-0.32,1.691-0.62,2.506-0.863c2.084-0.624,3.949-0.928,5.702-0.928s3.618,0.304,5.704,0.929
		c2.216,0.662,4.567,1.658,7.08,2.722c2.76,1.169,5.614,2.377,8.625,3.279c7.006,2.099,13.015,2.098,20.013,0
		c3.012-0.902,5.865-2.11,8.659-3.293c2.486-1.053,4.834-2.047,7.049-2.709c2.084-0.624,3.949-0.928,5.702-0.928
		c1.752,0,3.617,0.304,5.704,0.929c2.216,0.662,4.567,1.658,7.09,2.727c2.757,1.167,5.607,2.373,8.615,3.274
		c3.502,1.049,6.775,1.559,10.007,1.559s6.504-0.51,10.006-1.559c3.012-0.902,5.865-2.11,8.641-3.285
		c2.492-1.056,4.847-2.053,7.067-2.717c2.084-0.624,3.949-0.928,5.702-0.928c1.752,0,3.617,0.304,5.704,0.929
		c2.216,0.662,4.567,1.658,7.079,2.722c2.363,1,4.8,2.018,7.345,2.861v28.613C169,140.687,165.297,144.39,160.746,144.39z"/>
</g>
<g>
</g>
<g>
</g>
<g>
</g>
<g>
</g>
<g>
</g>
<g>
</g>
<g>
</g>
<g>
</g>
<g>
</g>
<g>
</g>
<g>
</g>
<g>
</g>
<g>
</g>
<g>
</g>
<g>
</g>
</svg>
