<?xml version="1.0" encoding="iso-8859-1"?>
<!-- Generator: Adobe Illustrator 18.0.0, SVG Export Plug-In . SVG Version: 6.00 Build 0)  -->
<!DOCTYPE svg PUBLIC "-//W3C//DTD SVG 1.1//EN" "http://www.w3.org/Graphics/SVG/1.1/DTD/svg11.dtd">
<svg version="1.1" id="Capa_1" xmlns="http://www.w3.org/2000/svg" xmlns:xlink="http://www.w3.org/1999/xlink" x="0px" y="0px"
	 viewBox="0 0 189.659 189.659" style="enable-background:new 0 0 189.659 189.659;" xml:space="preserve">
<g>
	<path style="fill:#1D1D1B;" d="M57.446,94.662v0.336c0,13.291,10.813,24.104,24.104,24.104h26.56
		c13.291,0,24.104-10.813,24.104-24.104v-0.336c0-13.291-10.813-24.104-24.104-24.104H81.55
		C68.259,70.558,57.446,81.371,57.446,94.662z M117.213,94.662v0.336c0,5.02-4.084,9.104-9.104,9.104H81.55
		c-5.02,0-9.104-4.084-9.104-9.104v-0.336c0-5.02,4.084-9.104,9.104-9.104h26.56C113.129,85.558,117.213,89.642,117.213,94.662z"/>
	<path style="fill:#1D1D1B;" d="M84.321,146.28C59.99,141.34,42.33,119.703,42.33,94.83c0-24.833,17.626-46.464,41.911-51.434
		c3.481-0.712,5.985-3.77,5.997-7.323l0.092-27.73c0.007-2.171-0.927-4.239-2.562-5.669c-1.634-1.429-3.808-2.082-5.959-1.785
		C35.17,7.296,0,47.683,0,94.83s35.17,87.533,81.808,93.941c0.341,0.047,0.682,0.07,1.021,0.07c1.801,0,3.555-0.649,4.929-1.848
		c1.633-1.424,2.571-3.485,2.571-5.652v-27.712C90.329,150.062,87.817,146.989,84.321,146.28z M75.329,172.259
		C40.395,163.469,15,131.59,15,94.83c0-36.752,25.378-68.622,60.299-77.423l-0.042,12.807C47.149,38.724,27.33,64.979,27.33,94.83
		c0,29.893,19.847,56.152,48,64.639V172.259z"/>
	<path style="fill:#1D1D1B;" d="M107.851,0.888c-2.15-0.296-4.317,0.353-5.95,1.777c-1.633,1.424-2.571,3.485-2.571,5.652V36.03
		c0,3.567,2.512,6.641,6.008,7.35c24.332,4.939,41.992,26.577,41.992,51.45c0,24.833-17.626,46.464-41.911,51.434
		c-3.481,0.712-5.985,3.77-5.997,7.323l-0.092,27.73c-0.007,2.171,0.927,4.239,2.562,5.669c1.375,1.203,3.133,1.855,4.938,1.855
		c0.339,0,0.681-0.023,1.021-0.07c46.638-6.408,81.808-46.795,81.808-93.941S154.489,7.296,107.851,0.888z M114.36,172.252
		l0.042-12.807c28.107-8.511,47.927-34.766,47.927-64.616c0-29.893-19.847-56.152-48-64.639V17.4
		c34.935,8.79,60.329,40.669,60.329,77.43C174.659,131.582,149.281,163.452,114.36,172.252z"/>
</g>
<g>
</g>
<g>
</g>
<g>
</g>
<g>
</g>
<g>
</g>
<g>
</g>
<g>
</g>
<g>
</g>
<g>
</g>
<g>
</g>
<g>
</g>
<g>
</g>
<g>
</g>
<g>
</g>
<g>
</g>
</svg>
