<?xml version="1.0" encoding="iso-8859-1"?>
<!-- Generator: Adobe Illustrator 18.0.0, SVG Export Plug-In . SVG Version: 6.00 Build 0)  -->
<!DOCTYPE svg PUBLIC "-//W3C//DTD SVG 1.1//EN" "http://www.w3.org/Graphics/SVG/1.1/DTD/svg11.dtd">
<svg version="1.1" id="Capa_1" xmlns="http://www.w3.org/2000/svg" xmlns:xlink="http://www.w3.org/1999/xlink" x="0px" y="0px"
	 viewBox="0 0 174.826 174.826" style="enable-background:new 0 0 174.826 174.826;" xml:space="preserve">
<g>
	<path style="fill:#1D1D1B;" d="M122.385,8.047h-13.01V6.936c0-3.831-3.105-6.936-6.936-6.936H72.386
		c-3.831,0-6.936,3.105-6.936,6.936v1.112h-13.01c-11.135,0-20.194,9.06-20.194,20.194v126.39c0,11.135,9.06,20.194,20.194,20.194
		h69.944c11.135,0,20.194-9.06,20.194-20.194V28.242C142.579,17.107,133.52,8.047,122.385,8.047z M127.579,154.631
		c0,2.864-2.33,5.194-5.194,5.194H52.441c-2.864,0-5.194-2.33-5.194-5.194V28.242c0-2.864,2.33-5.194,5.194-5.194h69.944
		c2.864,0,5.194,2.33,5.194,5.194V154.631z"/>
	<rect x="61.413" y="119.481" style="fill:#1D1D1B;" width="52" height="23.588"/>
</g>
<g>
</g>
<g>
</g>
<g>
</g>
<g>
</g>
<g>
</g>
<g>
</g>
<g>
</g>
<g>
</g>
<g>
</g>
<g>
</g>
<g>
</g>
<g>
</g>
<g>
</g>
<g>
</g>
<g>
</g>
</svg>
