<?xml version="1.0" encoding="iso-8859-1"?>
<!-- Generator: Adobe Illustrator 18.0.0, SVG Export Plug-In . SVG Version: 6.00 Build 0)  -->
<!DOCTYPE svg PUBLIC "-//W3C//DTD SVG 1.1//EN" "http://www.w3.org/Graphics/SVG/1.1/DTD/svg11.dtd">
<svg version="1.1" id="Capa_1" xmlns="http://www.w3.org/2000/svg" xmlns:xlink="http://www.w3.org/1999/xlink" x="0px" y="0px"
	 viewBox="0 0 197.059 197.059" style="enable-background:new 0 0 197.059 197.059;" xml:space="preserve">
<g>
	<path style="fill:#1D1D1B;" d="M120.346,0H76.713C55.837,0,38.854,16.984,38.854,37.86v0.307c0,4.143,3.357,7.5,7.5,7.5h2.938
		v94.411c-3.129,0.902-5.42,3.781-5.42,7.201v42.279c0,4.143,3.357,7.5,7.5,7.5h94.314c4.143,0,7.5-3.357,7.5-7.5v-42.279
		c0-3.42-2.291-6.299-5.42-7.201V45.667h2.938c4.143,0,7.5-3.357,7.5-7.5V37.86C158.205,16.984,141.222,0,120.346,0z M76.713,15
		h43.633c10.093,0,18.679,6.575,21.7,15.667H55.013C58.034,21.575,66.62,15,76.713,15z M138.187,182.059H58.872v-27.279h79.314
		V182.059z M132.767,139.779H64.292V45.667h68.475V139.779z"/>
	<path style="fill:#1D1D1B;" d="M77.862,69.667h41.334c4.143,0,7.5-3.357,7.5-7.5s-3.357-7.5-7.5-7.5H77.862
		c-4.143,0-7.5,3.357-7.5,7.5S73.72,69.667,77.862,69.667z"/>
</g>
<g>
</g>
<g>
</g>
<g>
</g>
<g>
</g>
<g>
</g>
<g>
</g>
<g>
</g>
<g>
</g>
<g>
</g>
<g>
</g>
<g>
</g>
<g>
</g>
<g>
</g>
<g>
</g>
<g>
</g>
</svg>
