<?xml version="1.0" encoding="iso-8859-1"?>
<!-- Generator: Adobe Illustrator 18.0.0, SVG Export Plug-In . SVG Version: 6.00 Build 0)  -->
<!DOCTYPE svg PUBLIC "-//W3C//DTD SVG 1.1//EN" "http://www.w3.org/Graphics/SVG/1.1/DTD/svg11.dtd">
<svg version="1.1" id="Capa_1" xmlns="http://www.w3.org/2000/svg" xmlns:xlink="http://www.w3.org/1999/xlink" x="0px" y="0px"
	 viewBox="0 0 182.705 182.705" style="enable-background:new 0 0 182.705 182.705;" xml:space="preserve">
<g>
	<path style="fill:#1D1D1B;" d="M135.01,55.269c0.149-0.59,0.237-1.204,0.237-1.84V12.5c0-4.143-3.358-7.5-7.5-7.5
		s-7.5,3.357-7.5,7.5v33.907c-2.986-1.331-6.079-2.46-9.263-3.375V7.5c0-4.143-3.358-7.5-7.5-7.5s-7.5,3.357-7.5,7.5v32.926
		c-1.533-0.099-3.074-0.167-4.631-0.167c-1.558,0-3.099,0.068-4.632,0.167V7.5c0-4.143-3.358-7.5-7.5-7.5s-7.5,3.357-7.5,7.5v35.532
		c-3.184,0.915-6.277,2.044-9.263,3.375V12.5c0-4.143-3.358-7.5-7.5-7.5s-7.5,3.357-7.5,7.5v40.929c0,0.636,0.088,1.25,0.237,1.84
		c-16.756,13.043-27.566,33.383-27.566,56.213c0,39.272,31.951,71.224,71.224,71.224c39.272,0,71.223-31.951,71.223-71.224
		C162.576,88.652,151.766,68.312,135.01,55.269z M91.353,167.705c-31.002,0-56.224-25.222-56.224-56.224
		c0-31.001,25.222-56.223,56.224-56.223c31.001,0,56.223,25.222,56.223,56.223C147.576,142.483,122.354,167.705,91.353,167.705z"/>
	<circle style="fill:#1D1D1B;" cx="70.274" cy="102.482" r="9"/>
	<circle style="fill:#1D1D1B;" cx="112.432" cy="102.482" r="9"/>
</g>
<g>
</g>
<g>
</g>
<g>
</g>
<g>
</g>
<g>
</g>
<g>
</g>
<g>
</g>
<g>
</g>
<g>
</g>
<g>
</g>
<g>
</g>
<g>
</g>
<g>
</g>
<g>
</g>
<g>
</g>
</svg>
