<?xml version="1.0" encoding="iso-8859-1"?>
<!-- Generator: Adobe Illustrator 18.0.0, SVG Export Plug-In . SVG Version: 6.00 Build 0)  -->
<!DOCTYPE svg PUBLIC "-//W3C//DTD SVG 1.1//EN" "http://www.w3.org/Graphics/SVG/1.1/DTD/svg11.dtd">
<svg version="1.1" id="Capa_1" xmlns="http://www.w3.org/2000/svg" xmlns:xlink="http://www.w3.org/1999/xlink" x="0px" y="0px"
	 viewBox="0 0 184 184" style="enable-background:new 0 0 184 184;" xml:space="preserve">
<g>
	<path style="fill:#1D1D1B;" d="M160.746,15.759H23.254C10.432,15.759,0,26.191,0,39.013v88.271
		c0,12.821,10.432,23.253,23.254,23.253h65.64l11.526,11.527c3.984,3.983,9.28,6.177,14.915,6.177c5.634,0,10.93-2.193,14.915-6.178
		l11.525-11.526h18.971c12.822,0,23.254-10.432,23.254-23.254V39.012C184,26.191,173.568,15.759,160.746,15.759z M169,127.283
		c0,4.551-3.703,8.254-8.254,8.254h-22.077c-1.989,0-3.896,0.79-5.304,2.197l-13.722,13.723c-1.151,1.15-2.682,1.784-4.309,1.784
		c-1.628,0-3.158-0.634-4.309-1.783l-13.723-13.724c-1.407-1.407-3.314-2.197-5.304-2.197H23.254c-4.551,0-8.254-3.702-8.254-8.253
		V39.013c0-4.551,3.703-8.254,8.254-8.254h137.492c4.551,0,8.254,3.702,8.254,8.253V127.283z"/>
	<path style="fill:#1D1D1B;" d="M147.333,48.648H36.667c-4.143,0-7.5,3.357-7.5,7.5s3.357,7.5,7.5,7.5h110.666
		c4.143,0,7.5-3.357,7.5-7.5S151.476,48.648,147.333,48.648z"/>
	<path style="fill:#1D1D1B;" d="M147.333,74.981H36.667c-4.143,0-7.5,3.357-7.5,7.5s3.357,7.5,7.5,7.5h110.666
		c4.143,0,7.5-3.357,7.5-7.5S151.476,74.981,147.333,74.981z"/>
	<path style="fill:#1D1D1B;" d="M147.333,101.315H36.667c-4.143,0-7.5,3.357-7.5,7.5s3.357,7.5,7.5,7.5h110.666
		c4.143,0,7.5-3.357,7.5-7.5S151.476,101.315,147.333,101.315z"/>
</g>
<g>
</g>
<g>
</g>
<g>
</g>
<g>
</g>
<g>
</g>
<g>
</g>
<g>
</g>
<g>
</g>
<g>
</g>
<g>
</g>
<g>
</g>
<g>
</g>
<g>
</g>
<g>
</g>
<g>
</g>
</svg>
