<?xml version="1.0" encoding="iso-8859-1"?>
<!-- Generator: Adobe Illustrator 18.0.0, SVG Export Plug-In . SVG Version: 6.00 Build 0)  -->
<!DOCTYPE svg PUBLIC "-//W3C//DTD SVG 1.1//EN" "http://www.w3.org/Graphics/SVG/1.1/DTD/svg11.dtd">
<svg version="1.1" id="Capa_1" xmlns="http://www.w3.org/2000/svg" xmlns:xlink="http://www.w3.org/1999/xlink" x="0px" y="0px"
	 viewBox="0 0 191.813 191.813" style="enable-background:new 0 0 191.813 191.813;" xml:space="preserve">
<g>
	<path style="fill:#1D1D1B;" d="M163.722,28.09C145.607,9.977,121.523,0,95.906,0S46.205,9.977,28.091,28.09
		C9.977,46.204,0,70.288,0,95.905c0,25.618,9.976,49.702,28.09,67.815c18.114,18.115,42.198,28.092,67.815,28.092
		s49.702-9.977,67.815-28.091c18.114-18.114,28.09-42.198,28.09-67.816C191.812,70.288,181.836,46.204,163.722,28.09z
		 M153.115,153.115c-15.281,15.281-35.598,23.697-57.209,23.697s-41.928-8.416-57.209-23.698C23.416,137.834,15,117.517,15,95.905
		c0-21.61,8.416-41.928,23.697-57.208C53.979,23.416,74.295,15,95.906,15s41.928,8.416,57.209,23.697
		c15.281,15.28,23.697,35.598,23.697,57.208C176.812,117.517,168.396,137.834,153.115,153.115z"/>
	<path style="fill:#1D1D1B;" d="M147.031,44.78c-13.656-13.655-31.813-21.177-51.125-21.176c-14.915,0-29.132,4.504-41.128,12.837
		c-0.178,0.113-0.35,0.237-0.52,0.367c-3.344,2.367-6.521,5.016-9.477,7.972c-2.905,2.905-5.494,6.007-7.8,9.25
		c-0.244,0.296-0.455,0.608-0.647,0.93c-16.903,24.573-16.9,57.336,0.009,81.906c0.186,0.31,0.39,0.612,0.625,0.898
		c2.31,3.249,4.903,6.357,7.813,9.268c13.656,13.655,31.812,21.177,51.125,21.177s37.469-7.521,51.125-21.177
		C175.221,118.841,175.221,72.972,147.031,44.78z M136.425,136.424c-0.985,0.985-2.009,1.916-3.051,2.819l-33.099-33.1
		c-1.406-1.406-3.314-2.196-5.303-2.196s-3.897,0.79-5.303,2.196l-32.231,32.232c-0.696-0.632-1.38-1.282-2.049-1.952
		c-0.914-0.914-1.776-1.859-2.615-2.817l32.403-32.402c1.407-1.407,2.197-3.314,2.197-5.304s-0.79-3.896-2.197-5.304L52.778,58.199
		c0.837-0.957,1.698-1.9,2.61-2.812c0.909-0.909,1.852-1.771,2.81-2.611l32.4,32.4c1.406,1.406,3.314,2.196,5.303,2.196
		s3.897-0.79,5.303-2.196l32.405-32.405c0.96,0.842,1.905,1.705,2.816,2.616c0.671,0.671,1.319,1.356,1.949,2.051l-32.678,32.678
		c-1.407,1.407-2.197,3.314-2.197,5.304s0.79,3.896,2.197,5.304l33.131,33.13C138.054,134.728,137.26,135.588,136.425,136.424z
		 M44.33,70.964L69.266,95.9l-24.94,24.939C36.751,105.133,36.753,86.67,44.33,70.964z M121.606,95.421l25.407-25.407
		c8.096,16.01,8.201,35.044,0.321,51.134L121.606,95.421z M120.864,44.303L95.901,69.267l-24.959-24.96
		c7.686-3.726,16.172-5.703,24.965-5.702C104.696,38.604,113.18,40.579,120.864,44.303z M69.997,147.029l24.974-24.975
		l25.601,25.602c-7.606,3.632-15.988,5.553-24.666,5.553C86.751,153.208,77.93,151.06,69.997,147.029z"/>
</g>
<g>
</g>
<g>
</g>
<g>
</g>
<g>
</g>
<g>
</g>
<g>
</g>
<g>
</g>
<g>
</g>
<g>
</g>
<g>
</g>
<g>
</g>
<g>
</g>
<g>
</g>
<g>
</g>
<g>
</g>
</svg>
