<?xml version="1.0" encoding="iso-8859-1"?>
<!-- Generator: Adobe Illustrator 18.0.0, SVG Export Plug-In . SVG Version: 6.00 Build 0)  -->
<!DOCTYPE svg PUBLIC "-//W3C//DTD SVG 1.1//EN" "http://www.w3.org/Graphics/SVG/1.1/DTD/svg11.dtd">
<svg version="1.1" id="Capa_1" xmlns="http://www.w3.org/2000/svg" xmlns:xlink="http://www.w3.org/1999/xlink" x="0px" y="0px"
	 viewBox="0 0 142.446 142.446" style="enable-background:new 0 0 142.446 142.446;" xml:space="preserve">
<g>
	<path style="fill:#1D1D1B;" d="M120.991,116.742c-24.752-0.756-44.142-20.75-44.142-45.519c0-24.77,19.389-44.764,44.142-45.52
		c3.259-0.099,6.082-2.294,6.98-5.429s-0.331-6.491-3.042-8.304C113.209,4.14,99.542,0,85.406,0
		C46.134,0,14.183,31.951,14.183,71.224s31.951,71.223,71.223,71.223c14.136,0,27.802-4.14,39.523-11.973
		c2.711-1.812,3.941-5.168,3.042-8.303S124.251,116.841,120.991,116.742z M85.406,127.446c-31.001,0-56.223-25.222-56.223-56.223
		C29.183,40.222,54.405,15,85.406,15c3.95,0,7.852,0.409,11.656,1.212c-6.687,3.081-12.814,7.398-18.086,12.82
		C67.932,40.393,61.85,55.376,61.85,71.224c0,15.847,6.083,30.83,17.126,42.19c5.271,5.422,11.4,9.739,18.086,12.82
		C93.258,127.037,89.356,127.446,85.406,127.446z"/>
</g>
<g>
</g>
<g>
</g>
<g>
</g>
<g>
</g>
<g>
</g>
<g>
</g>
<g>
</g>
<g>
</g>
<g>
</g>
<g>
</g>
<g>
</g>
<g>
</g>
<g>
</g>
<g>
</g>
<g>
</g>
</svg>
