<?xml version="1.0" encoding="iso-8859-1"?>
<!-- Generator: Adobe Illustrator 18.0.0, SVG Export Plug-In . SVG Version: 6.00 Build 0)  -->
<!DOCTYPE svg PUBLIC "-//W3C//DTD SVG 1.1//EN" "http://www.w3.org/Graphics/SVG/1.1/DTD/svg11.dtd">
<svg version="1.1" id="Capa_1" xmlns="http://www.w3.org/2000/svg" xmlns:xlink="http://www.w3.org/1999/xlink" x="0px" y="0px"
	 viewBox="0 0 114.123 114.123" style="enable-background:new 0 0 114.123 114.123;" xml:space="preserve">
<g>
	<path style="fill:#1D1D1B;" d="M22.383,114.123c-5.923,0-11.491-2.306-15.679-6.494l-0.223-0.223C2.307,103.231,0,97.663,0,91.741
		S2.307,80.25,6.495,76.062L76.062,6.494C80.25,2.306,85.818,0,91.741,0c5.922,0,11.49,2.306,15.678,6.494l0.222,0.223
		c4.176,4.175,6.482,9.744,6.482,15.666s-2.307,11.491-6.495,15.679l-69.566,69.568C33.873,111.817,28.305,114.123,22.383,114.123z
		 M91.741,15c-1.916,0-3.718,0.746-5.073,2.101L17.102,86.669C15.746,88.024,15,89.825,15,91.741s0.746,3.717,2.101,5.071
		l0.223,0.223c1.342,1.342,3.143,2.088,5.06,2.088c1.915,0,3.717-0.746,5.072-2.101l69.566-69.568
		c1.355-1.355,2.102-3.156,2.102-5.072s-0.746-3.717-2.101-5.071l-0.222-0.223C95.458,15.746,93.657,15,91.741,15z"/>
	<path style="fill:#1D1D1B;" d="M91.741,114.123c-5.923,0-11.491-2.306-15.679-6.494L6.494,38.061C2.307,33.873,0,28.305,0,22.382
		S2.307,10.892,6.495,6.704L6.69,6.507C10.892,2.306,16.46,0,22.383,0c5.922,0,11.49,2.306,15.678,6.494l69.568,69.569
		c4.188,4.188,6.494,9.756,6.494,15.678s-2.307,11.491-6.495,15.679l-0.196,0.197C103.231,111.817,97.663,114.123,91.741,114.123z
		 M22.383,15c-1.917,0-3.718,0.746-5.073,2.101l-0.195,0.197C15.746,18.666,15,20.467,15,22.382s0.746,3.717,2.101,5.071
		l69.568,69.569c1.354,1.354,3.156,2.101,5.072,2.101s3.717-0.746,5.072-2.101l0.196-0.197c1.367-1.367,2.113-3.168,2.113-5.084
		s-0.746-3.717-2.101-5.071L27.454,17.101C26.1,15.746,24.298,15,22.383,15z"/>
</g>
<g>
</g>
<g>
</g>
<g>
</g>
<g>
</g>
<g>
</g>
<g>
</g>
<g>
</g>
<g>
</g>
<g>
</g>
<g>
</g>
<g>
</g>
<g>
</g>
<g>
</g>
<g>
</g>
<g>
</g>
</svg>
