<?xml version="1.0" encoding="iso-8859-1"?>
<!-- Generator: Adobe Illustrator 18.0.0, SVG Export Plug-In . SVG Version: 6.00 Build 0)  -->
<!DOCTYPE svg PUBLIC "-//W3C//DTD SVG 1.1//EN" "http://www.w3.org/Graphics/SVG/1.1/DTD/svg11.dtd">
<svg version="1.1" id="Capa_1" xmlns="http://www.w3.org/2000/svg" xmlns:xlink="http://www.w3.org/1999/xlink" x="0px" y="0px"
	 viewBox="0 0 254.558 254.558" style="enable-background:new 0 0 254.558 254.558;" xml:space="preserve">
<g>
	<path style="fill:#1D1D1B;" d="M33.951,83.755h49.828c4.142,0,7.5-3.357,7.5-7.5s-3.358-7.5-7.5-7.5H33.951
		c-4.142,0-7.5,3.357-7.5,7.5S29.809,83.755,33.951,83.755z"/>
	<path style="fill:#1D1D1B;" d="M100.828,170.801H33.951c-4.142,0-7.5,3.357-7.5,7.5s3.358,7.5,7.5,7.5h66.877
		c4.142,0,7.5-3.357,7.5-7.5S104.97,170.801,100.828,170.801z"/>
	<path style="fill:#1D1D1B;" d="M100.828,136.447H33.951c-4.142,0-7.5,3.357-7.5,7.5s3.358,7.5,7.5,7.5h66.877
		c4.142,0,7.5-3.357,7.5-7.5S104.97,136.447,100.828,136.447z"/>
	<path style="fill:#1D1D1B;" d="M100.828,102.091H33.951c-4.142,0-7.5,3.357-7.5,7.5s3.358,7.5,7.5,7.5h66.877
		c4.142,0,7.5-3.357,7.5-7.5S104.97,102.091,100.828,102.091z"/>
	<path style="fill:#1D1D1B;" d="M220.606,172.801h-66.877c-4.142,0-7.5,3.357-7.5,7.5s3.358,7.5,7.5,7.5h66.877
		c4.142,0,7.5-3.357,7.5-7.5S224.749,172.801,220.606,172.801z"/>
	<path style="fill:#1D1D1B;" d="M220.606,138.447h-66.877c-4.142,0-7.5,3.357-7.5,7.5s3.358,7.5,7.5,7.5h66.877
		c4.142,0,7.5-3.357,7.5-7.5S224.749,138.447,220.606,138.447z"/>
	<path style="fill:#1D1D1B;" d="M231.304,35.279h-88.271c-6.073,0-11.608,2.343-15.754,6.169c-4.146-3.826-9.681-6.169-15.754-6.169
		H23.254C10.432,35.279,0,45.71,0,58.532v137.493c0,12.822,10.432,23.254,23.254,23.254h88.271c6.073,0,11.608-2.343,15.754-6.169
		c4.146,3.826,9.681,6.169,15.754,6.169h88.271c12.822,0,23.254-10.432,23.254-23.254V58.532
		C254.558,45.71,244.126,35.279,231.304,35.279z M111.525,204.279H23.254c-4.551,0-8.254-3.703-8.254-8.254V58.532
		c0-4.551,3.703-8.253,8.254-8.253h88.271c4.551,0,8.254,3.702,8.254,8.253v137.493
		C119.779,200.576,116.076,204.279,111.525,204.279z M239.558,196.025c0,4.551-3.703,8.254-8.254,8.254h-88.271
		c-4.551,0-8.254-3.703-8.254-8.254V58.532c0-4.551,3.703-8.253,8.254-8.253h88.271c4.551,0,8.254,3.702,8.254,8.253V196.025z"/>
	<path style="fill:#1D1D1B;" d="M149.696,79.869l23.854,15.219l-22.897,14.83c-3.477,2.252-4.47,6.896-2.218,10.372
		c1.436,2.217,3.844,3.424,6.302,3.424c1.397,0,2.811-0.39,4.07-1.206l28.643-18.552l29.123,18.58
		c1.25,0.797,2.646,1.178,4.026,1.178c2.476,0,4.9-1.226,6.33-3.467c2.228-3.492,1.203-8.129-2.289-10.357l-23.35-14.897
		l23.394-15.152c3.477-2.252,4.47-6.896,2.218-10.372c-2.251-3.477-6.896-4.47-10.372-2.218l-29.14,18.873l-29.626-18.901
		c-3.491-2.226-8.128-1.202-10.356,2.289C145.179,73.003,146.204,77.64,149.696,79.869z"/>
</g>
<g>
</g>
<g>
</g>
<g>
</g>
<g>
</g>
<g>
</g>
<g>
</g>
<g>
</g>
<g>
</g>
<g>
</g>
<g>
</g>
<g>
</g>
<g>
</g>
<g>
</g>
<g>
</g>
<g>
</g>
</svg>
