<?xml version="1.0" encoding="iso-8859-1"?>
<!-- Generator: Adobe Illustrator 18.0.0, SVG Export Plug-In . SVG Version: 6.00 Build 0)  -->
<!DOCTYPE svg PUBLIC "-//W3C//DTD SVG 1.1//EN" "http://www.w3.org/Graphics/SVG/1.1/DTD/svg11.dtd">
<svg version="1.1" id="Capa_1" xmlns="http://www.w3.org/2000/svg" xmlns:xlink="http://www.w3.org/1999/xlink" x="0px" y="0px"
	 viewBox="0 0 184 184" style="enable-background:new 0 0 184 184;" xml:space="preserve">
<g>
	<path style="fill:#1D1D1B;" d="M160.746,41.748h-34.669v-3.975c0-11.193-9.106-20.299-20.3-20.299H78.223
		c-11.193,0-20.3,9.106-20.3,20.299v3.975H38.5V30.996c0-4.142-3.358-7.5-7.5-7.5s-7.5,3.358-7.5,7.5v10.752h-0.246
		C10.432,41.748,0,52.18,0,65.002v78.271c0,12.822,10.432,23.253,23.254,23.253h137.492c12.822,0,23.254-10.432,23.254-23.253
		V65.002C184,52.18,173.568,41.748,160.746,41.748z M72.923,37.773c0-2.922,2.377-5.299,5.3-5.299h27.554
		c2.922,0,5.3,2.377,5.3,5.299v3.975H72.923V37.773z M169,143.273c0,4.551-3.703,8.253-8.254,8.253H23.254
		c-4.551,0-8.254-3.703-8.254-8.253V65.002c0-4.551,3.703-8.254,8.254-8.254h42.169h53.153h42.169c4.551,0,8.254,3.703,8.254,8.254
		V143.273z"/>
	<path style="fill:#1D1D1B;" d="M92,66.421c-20.797,0-37.716,16.919-37.716,37.716S71.203,141.854,92,141.854
		s37.716-16.919,37.716-37.716S112.797,66.421,92,66.421z M92,126.854c-12.526,0-22.716-10.19-22.716-22.716
		S79.474,81.421,92,81.421s22.716,10.19,22.716,22.716S104.526,126.854,92,126.854z"/>
	<circle style="fill:#1D1D1B;" cx="92" cy="104.137" r="15.209"/>
</g>
<g>
</g>
<g>
</g>
<g>
</g>
<g>
</g>
<g>
</g>
<g>
</g>
<g>
</g>
<g>
</g>
<g>
</g>
<g>
</g>
<g>
</g>
<g>
</g>
<g>
</g>
<g>
</g>
<g>
</g>
</svg>
