<?xml version="1.0" encoding="iso-8859-1"?>
<!-- Generator: Adobe Illustrator 18.0.0, SVG Export Plug-In . SVG Version: 6.00 Build 0)  -->
<!DOCTYPE svg PUBLIC "-//W3C//DTD SVG 1.1//EN" "http://www.w3.org/Graphics/SVG/1.1/DTD/svg11.dtd">
<svg version="1.1" id="Capa_1" xmlns="http://www.w3.org/2000/svg" xmlns:xlink="http://www.w3.org/1999/xlink" x="0px" y="0px"
	 viewBox="0 0 147.899 147.899" style="enable-background:new 0 0 147.899 147.899;" xml:space="preserve">
<g>
	<path style="fill:#1D1D1B;" d="M133.95,20.084h-33.667V7.5c0-4.143-3.357-7.5-7.5-7.5s-7.5,3.357-7.5,7.5v12.584H62.617V7.5
		c0-4.143-3.357-7.5-7.5-7.5s-7.5,3.357-7.5,7.5v12.584H13.95c-4.143,0-7.5,3.357-7.5,7.5v0.493
		c0,31.079,25.284,56.363,56.363,56.363h3.637v30.626c0,18.104,14.729,32.833,32.833,32.833c1.775,0,3.558-0.144,5.297-0.427
		c4.088-0.665,6.863-4.519,6.197-8.607c-0.665-4.088-4.514-6.866-8.607-6.197c-0.944,0.153-1.916,0.231-2.887,0.231
		c-9.833,0-17.833-8-17.833-17.833V84.44h3.637c31.079,0,56.363-25.284,56.363-56.363v-0.493
		C141.45,23.441,138.092,20.084,133.95,20.084z M85.086,69.44H62.813c-20.42,0-37.432-14.873-40.77-34.356h103.813
		C122.518,54.567,105.506,69.44,85.086,69.44z"/>
</g>
<g>
</g>
<g>
</g>
<g>
</g>
<g>
</g>
<g>
</g>
<g>
</g>
<g>
</g>
<g>
</g>
<g>
</g>
<g>
</g>
<g>
</g>
<g>
</g>
<g>
</g>
<g>
</g>
<g>
</g>
</svg>
