<?xml version="1.0" encoding="iso-8859-1"?>
<!-- Generator: Adobe Illustrator 18.0.0, SVG Export Plug-In . SVG Version: 6.00 Build 0)  -->
<!DOCTYPE svg PUBLIC "-//W3C//DTD SVG 1.1//EN" "http://www.w3.org/Graphics/SVG/1.1/DTD/svg11.dtd">
<svg version="1.1" id="Capa_1" xmlns="http://www.w3.org/2000/svg" xmlns:xlink="http://www.w3.org/1999/xlink" x="0px" y="0px"
	 viewBox="0 0 142.73 142.73" style="enable-background:new 0 0 142.73 142.73;" xml:space="preserve">
<g>
	<path style="fill:#1D1D1B;" d="M120.558,49.044H93.687V22.173C93.687,9.947,83.74,0,71.514,0h-0.297
		C58.99,0,49.044,9.947,49.044,22.173v26.871H22.173C9.946,49.044,0,58.991,0,71.217v0.297C0,83.74,9.946,93.686,22.173,93.686
		h26.871v26.871c0,12.226,9.946,22.173,22.173,22.173h0.297c12.227,0,22.173-9.947,22.173-22.173V93.686h26.871
		c12.227,0,22.173-9.946,22.173-22.172v-0.297C142.73,58.991,132.784,49.044,120.558,49.044z M64.044,22.173
		c0-3.955,3.218-7.173,7.173-7.173h0.297c3.955,0,7.173,3.218,7.173,7.173v26.871H64.044V22.173z M78.687,64.044v14.642H64.044
		V64.044H78.687z M22.173,78.686c-3.955,0-7.173-3.217-7.173-7.172v-0.297c0-3.955,3.218-7.172,7.173-7.172h26.871v14.642H22.173z
		 M78.687,120.557c0,3.955-3.218,7.173-7.173,7.173h-0.297c-3.955,0-7.173-3.218-7.173-7.173V93.686h14.643V120.557z M127.73,71.514
		c0,3.955-3.218,7.172-7.173,7.172H93.687V64.044h26.871c3.955,0,7.173,3.217,7.173,7.172V71.514z"/>
</g>
<g>
</g>
<g>
</g>
<g>
</g>
<g>
</g>
<g>
</g>
<g>
</g>
<g>
</g>
<g>
</g>
<g>
</g>
<g>
</g>
<g>
</g>
<g>
</g>
<g>
</g>
<g>
</g>
<g>
</g>
</svg>
