<?xml version="1.0" encoding="iso-8859-1"?>
<!-- Generator: Adobe Illustrator 18.0.0, SVG Export Plug-In . SVG Version: 6.00 Build 0)  -->
<!DOCTYPE svg PUBLIC "-//W3C//DTD SVG 1.1//EN" "http://www.w3.org/Graphics/SVG/1.1/DTD/svg11.dtd">
<svg version="1.1" id="Capa_1" xmlns="http://www.w3.org/2000/svg" xmlns:xlink="http://www.w3.org/1999/xlink" x="0px" y="0px"
	 viewBox="0 0 191.812 191.812" style="enable-background:new 0 0 191.812 191.812;" xml:space="preserve">
<g>
	<path style="fill:#1D1D1B;" d="M95.906,0C43.023,0,0,43.023,0,95.906s43.023,95.906,95.906,95.906s95.906-43.023,95.906-95.906
		S148.789,0,95.906,0z M95.906,176.812C51.294,176.812,15,140.518,15,95.906S51.294,15,95.906,15s80.906,36.294,80.906,80.906
		S140.518,176.812,95.906,176.812z"/>
	<path style="fill:#1D1D1B;" d="M128.555,34.928c-9.978-5.353-21.268-8.182-32.649-8.182c-38.135,0-69.16,31.025-69.16,69.16
		c0,17.452,6.523,34.119,18.367,46.932l6.018,6.51l85.232-110.232L128.555,34.928z M50.573,125.547
		c-5.737-8.754-8.827-19.012-8.827-29.641c0-29.864,24.296-54.16,54.16-54.16c5.885,0,11.736,0.964,17.278,2.824L50.573,125.547z"/>
	<path style="fill:#1D1D1B;" d="M146.699,48.974l-6.018-6.51L55.449,152.697l7.807,4.188c9.978,5.352,21.268,8.181,32.649,8.181
		c38.135,0,69.16-31.025,69.16-69.16C165.065,78.454,158.543,61.786,146.699,48.974z M95.906,150.066
		c-5.885,0-11.736-0.964-17.278-2.824l62.612-80.977c5.736,8.754,8.826,19.012,8.826,29.641
		C150.065,125.77,125.77,150.066,95.906,150.066z"/>
</g>
<g>
</g>
<g>
</g>
<g>
</g>
<g>
</g>
<g>
</g>
<g>
</g>
<g>
</g>
<g>
</g>
<g>
</g>
<g>
</g>
<g>
</g>
<g>
</g>
<g>
</g>
<g>
</g>
<g>
</g>
</svg>
