<?xml version="1.0" encoding="iso-8859-1"?>
<!-- Generator: Adobe Illustrator 18.0.0, SVG Export Plug-In . SVG Version: 6.00 Build 0)  -->
<!DOCTYPE svg PUBLIC "-//W3C//DTD SVG 1.1//EN" "http://www.w3.org/Graphics/SVG/1.1/DTD/svg11.dtd">
<svg version="1.1" id="Capa_1" xmlns="http://www.w3.org/2000/svg" xmlns:xlink="http://www.w3.org/1999/xlink" x="0px" y="0px"
	 viewBox="0 0 123.003 123.003" style="enable-background:new 0 0 123.003 123.003;" xml:space="preserve">
<g>
	<path style="fill:#1D1D1B;" d="M97.217,68.428l23.459-23.459c1.023-0.975,1.768-2.236,2.113-3.654
		c0.621-2.544-0.132-5.23-1.983-7.082c-2.105-2.106-5.152-2.698-7.789-1.775c-5.029,1.568-10.259,2.363-15.547,2.363
		c-13.907,0-26.981-5.416-36.814-15.249c-4.396-4.396-7.929-9.459-10.499-15.05c-0.371-0.807-0.883-1.542-1.512-2.17L48.49,2.196
		c-2.93-2.929-7.677-2.928-10.606,0L2.197,37.883c-2.929,2.929-2.929,7.677,0,10.606l0.155,0.155c0.628,0.628,1.363,1.14,2.17,1.511
		c5.59,2.57,10.653,6.103,15.05,10.5c13.75,13.75,18.677,33.793,12.887,52.361c-0.916,2.616-0.341,5.639,1.732,7.746l0.002,0.002
		c1.427,1.449,3.359,2.238,5.345,2.238c0.583,0,1.171-0.068,1.752-0.208c1.42-0.341,2.683-1.081,3.661-2.101l23.477-23.477
		l43.336,24.779c1.163,0.666,2.446,0.989,3.721,0.989c1.94,0,3.861-0.752,5.306-2.197c2.392-2.392,2.887-6.089,1.207-9.026
		L97.217,68.428z M30.179,50.049c-3.204-3.204-6.686-6.052-10.412-8.522l21.76-21.76c2.47,3.727,5.318,7.208,8.521,10.412
		c12.004,12.004,27.758,18.897,44.62,19.585L49.792,94.64C49.111,78.118,42.311,62.182,30.179,50.049z M79.422,86.226l6.804-6.803
		L95.31,95.31L79.422,86.226z"/>
</g>
<g>
</g>
<g>
</g>
<g>
</g>
<g>
</g>
<g>
</g>
<g>
</g>
<g>
</g>
<g>
</g>
<g>
</g>
<g>
</g>
<g>
</g>
<g>
</g>
<g>
</g>
<g>
</g>
<g>
</g>
</svg>
