<?xml version="1.0" encoding="iso-8859-1"?>
<!-- Generator: Adobe Illustrator 18.0.0, SVG Export Plug-In . SVG Version: 6.00 Build 0)  -->
<!DOCTYPE svg PUBLIC "-//W3C//DTD SVG 1.1//EN" "http://www.w3.org/Graphics/SVG/1.1/DTD/svg11.dtd">
<svg version="1.1" id="Capa_1" xmlns="http://www.w3.org/2000/svg" xmlns:xlink="http://www.w3.org/1999/xlink" x="0px" y="0px"
	 viewBox="0 0 224.859 224.859" style="enable-background:new 0 0 224.859 224.859;" xml:space="preserve">
<g>
	<path style="fill:#1D1D1B;" d="M177.895,74.6h-8.228c-6.527-30.791-33.748-53.257-65.885-53.257
		c-32.514,0-59.952,22.947-66.089,54.264c-9.026,1.869-17.306,6.282-23.921,12.858C4.891,97.294,0,109.049,0,121.565
		c0,24.177,18.395,44.153,41.938,46.688v16.057c0,4.143,3.358,7.5,7.5,7.5s7.5-3.357,7.5-7.5v-15.78h63.991v12.324
		c0,4.143,3.358,7.5,7.5,7.5s7.5-3.357,7.5-7.5V168.53h41.965c25.896,0,46.965-21.068,46.965-46.965S203.791,74.6,177.895,74.6z
		 M103.782,36.343c23.879,0,44.258,15.954,50.443,38.257H53.338C59.518,52.291,79.882,36.343,103.782,36.343z M177.895,153.53
		H46.971C29.342,153.515,15,139.175,15,121.565c0-16.911,12.938-30.5,29.844-31.851c0.076-0.006,0.152-0.012,0.227-0.021
		c0.646-0.047,1.297-0.082,1.955-0.093h130.869c17.625,0,31.965,14.339,31.965,31.965S195.52,153.53,177.895,153.53z"/>
	<path style="fill:#1D1D1B;" d="M89.337,173.722c-4.142,0-7.5,3.357-7.5,7.5v14.794c0,4.143,3.358,7.5,7.5,7.5s7.5-3.357,7.5-7.5
		v-14.794C96.837,177.08,93.479,173.722,89.337,173.722z"/>
	<path style="fill:#1D1D1B;" d="M163.291,173.722c-4.142,0-7.5,3.357-7.5,7.5v14.794c0,4.143,3.358,7.5,7.5,7.5s7.5-3.357,7.5-7.5
		v-14.794C170.791,177.08,167.433,173.722,163.291,173.722z"/>
</g>
<g>
</g>
<g>
</g>
<g>
</g>
<g>
</g>
<g>
</g>
<g>
</g>
<g>
</g>
<g>
</g>
<g>
</g>
<g>
</g>
<g>
</g>
<g>
</g>
<g>
</g>
<g>
</g>
<g>
</g>
</svg>
