<?xml version="1.0" encoding="iso-8859-1"?>
<!-- Generator: Adobe Illustrator 18.0.0, SVG Export Plug-In . SVG Version: 6.00 Build 0)  -->
<!DOCTYPE svg PUBLIC "-//W3C//DTD SVG 1.1//EN" "http://www.w3.org/Graphics/SVG/1.1/DTD/svg11.dtd">
<svg version="1.1" id="Capa_1" xmlns="http://www.w3.org/2000/svg" xmlns:xlink="http://www.w3.org/1999/xlink" x="0px" y="0px"
	 viewBox="0 0 160.903 160.903" style="enable-background:new 0 0 160.903 160.903;" xml:space="preserve">
<g>
	<path style="fill:#1D1D1B;" d="M158.706,75.144c-0.028-0.028-0.058-0.051-0.086-0.078l-41.833-41.833
		c-3.565-3.565-8.305-5.528-13.346-5.528c-5.04,0-9.779,1.963-13.353,5.536l-0.154,0.155c-7.358,7.358-7.358,19.332,0,26.69
		l1.377,1.377H18.873C8.467,61.464,0,69.93,0,80.337v0.229c0,10.407,8.467,18.873,18.873,18.873h72.439l-1.377,1.377
		c-7.358,7.358-7.358,19.332-0.008,26.682l0.17,0.17c3.565,3.564,8.305,5.528,13.346,5.528s9.78-1.963,13.345-5.528l41.919-41.918
		C161.635,82.822,161.635,78.073,158.706,75.144z M18.873,84.439c-2.136,0-3.873-1.737-3.873-3.873v-0.229
		c0-2.136,1.737-3.873,3.873-3.873h87.438l3.988,3.988l-3.988,3.988H18.873z M106.18,117.063c-0.731,0.731-1.703,1.134-2.737,1.134
		s-2.007-0.403-2.73-1.126l-0.17-0.17c-0.731-0.731-1.135-1.704-1.135-2.739c0-1.034,0.403-2.007,1.135-2.738l14.16-14.16
		c0.014-0.014,0.028-0.028,0.042-0.043l11.463-11.464l0.001-0.001l0.001-0.001c2.929-2.929,2.929-7.678,0-10.606l-11.465-11.465
		c-0.014-0.014-0.028-0.028-0.042-0.043l-14.16-14.16c-0.731-0.731-1.135-1.704-1.135-2.739c0-1.034,0.403-2.007,1.143-2.746
		l0.154-0.155c1.512-1.51,3.968-1.509,5.476,0l36.611,36.612L106.18,117.063z"/>
</g>
<g>
</g>
<g>
</g>
<g>
</g>
<g>
</g>
<g>
</g>
<g>
</g>
<g>
</g>
<g>
</g>
<g>
</g>
<g>
</g>
<g>
</g>
<g>
</g>
<g>
</g>
<g>
</g>
<g>
</g>
</svg>
