<?xml version="1.0" encoding="iso-8859-1"?>
<!-- Generator: Adobe Illustrator 18.0.0, SVG Export Plug-In . SVG Version: 6.00 Build 0)  -->
<!DOCTYPE svg PUBLIC "-//W3C//DTD SVG 1.1//EN" "http://www.w3.org/Graphics/SVG/1.1/DTD/svg11.dtd">
<svg version="1.1" id="Capa_1" xmlns="http://www.w3.org/2000/svg" xmlns:xlink="http://www.w3.org/1999/xlink" x="0px" y="0px"
	 viewBox="0 0 193 193" style="enable-background:new 0 0 193 193;" xml:space="preserve">
<g>
	<path style="fill:#1D1D1B;" d="M185.5,13.73H7.5c-4.143,0-7.5,3.357-7.5,7.5v117c0,4.143,3.357,7.5,7.5,7.5h68.274v18.539H52.167
		c-4.143,0-7.5,3.357-7.5,7.5s3.357,7.5,7.5,7.5h88.666c4.143,0,7.5-3.357,7.5-7.5s-3.357-7.5-7.5-7.5h-23.607V145.73H185.5
		c4.143,0,7.5-3.357,7.5-7.5v-117C193,17.088,189.643,13.73,185.5,13.73z M102.226,164.27H90.774V145.73h11.451V164.27z M178,130.73
		H15v-102h163V130.73z"/>
</g>
<g>
</g>
<g>
</g>
<g>
</g>
<g>
</g>
<g>
</g>
<g>
</g>
<g>
</g>
<g>
</g>
<g>
</g>
<g>
</g>
<g>
</g>
<g>
</g>
<g>
</g>
<g>
</g>
<g>
</g>
</svg>
