<?xml version="1.0" encoding="iso-8859-1"?>
<!-- Generator: Adobe Illustrator 18.0.0, SVG Export Plug-In . SVG Version: 6.00 Build 0)  -->
<!DOCTYPE svg PUBLIC "-//W3C//DTD SVG 1.1//EN" "http://www.w3.org/Graphics/SVG/1.1/DTD/svg11.dtd">
<svg version="1.1" id="Capa_1" xmlns="http://www.w3.org/2000/svg" xmlns:xlink="http://www.w3.org/1999/xlink" x="0px" y="0px"
	 viewBox="0 0 207.169 207.169" style="enable-background:new 0 0 207.169 207.169;" xml:space="preserve">
<g>
	<path style="fill:#1D1D1B;" d="M49.84,39.25c-2.929-2.929-7.678-2.929-10.606,0C30.693,47.791,25.99,59.146,25.99,71.223
		s4.704,23.433,13.244,31.973c1.464,1.465,3.384,2.197,5.303,2.197s3.839-0.732,5.303-2.197c2.929-2.929,2.929-7.678,0-10.606
		c-5.707-5.707-8.851-13.295-8.851-21.366c0-8.071,3.144-15.659,8.851-21.366C52.77,46.928,52.77,42.179,49.84,39.25z"/>
	<path style="fill:#1D1D1B;" d="M103.179,39.25c-2.928-2.929-7.677-2.929-10.606,0c-2.929,2.929-2.929,7.677,0,10.606
		c11.781,11.782,11.781,30.951,0,42.732c-2.929,2.929-2.929,7.678,0,10.606c1.464,1.464,3.384,2.197,5.303,2.197
		s3.839-0.732,5.303-2.197C120.809,85.566,120.809,56.88,103.179,39.25z"/>
	<path style="fill:#1D1D1B;" d="M204.955,177.209l-71.466-71.466c14.994-27.082,11.034-61.927-11.92-84.882
		C108.116,7.409,90.231,0,71.207,0c-19.024,0-36.91,7.409-50.362,20.861c-27.77,27.77-27.77,72.955,0,100.725
		c13.452,13.452,31.338,20.861,50.362,20.861c12.287,0,24.09-3.107,34.54-8.92l71.446,71.446c1.464,1.464,3.384,2.197,5.303,2.197
		s3.839-0.732,5.303-2.197l17.157-17.157C207.884,184.887,207.884,180.138,204.955,177.209z M31.451,110.979
		c-21.921-21.922-21.921-57.591,0-79.512C42.07,20.848,56.189,15,71.207,15c15.018,0,29.137,5.848,39.756,16.467
		c21.921,21.921,21.921,57.591,0,79.512c-10.619,10.619-24.738,16.467-39.756,16.467C56.189,127.447,42.07,121.599,31.451,110.979z
		 M121.569,121.586c1.101-1.101,2.143-2.239,3.157-3.393l50.446,50.446l-6.55,6.55l-50.445-50.445
		C119.332,123.727,120.471,122.684,121.569,121.586z M182.495,189.063l-3.267-3.267l6.55-6.55l3.267,3.267L182.495,189.063z"/>
</g>
<g>
</g>
<g>
</g>
<g>
</g>
<g>
</g>
<g>
</g>
<g>
</g>
<g>
</g>
<g>
</g>
<g>
</g>
<g>
</g>
<g>
</g>
<g>
</g>
<g>
</g>
<g>
</g>
<g>
</g>
</svg>
