<?xml version="1.0" encoding="iso-8859-1"?>
<!-- Generator: Adobe Illustrator 18.0.0, SVG Export Plug-In . SVG Version: 6.00 Build 0)  -->
<!DOCTYPE svg PUBLIC "-//W3C//DTD SVG 1.1//EN" "http://www.w3.org/Graphics/SVG/1.1/DTD/svg11.dtd">
<svg version="1.1" id="Capa_1" xmlns="http://www.w3.org/2000/svg" xmlns:xlink="http://www.w3.org/1999/xlink" x="0px" y="0px"
	 viewBox="0 0 203.125 203.125" style="enable-background:new 0 0 203.125 203.125;" xml:space="preserve">
<g>
	<path style="fill:#1D1D1B;" d="M203.087,68.879c0.026-0.253,0.039-0.509,0.039-0.768c0-1.078-0.228-2.104-0.637-3.03
		l-16.162-45.477c-3.112-8.758-11.448-14.642-20.742-14.642H37.521c-9.294,0-17.63,5.884-20.742,14.642L0.433,65.599
		c-0.011,0.03-0.016,0.061-0.026,0.091c-0.073,0.214-0.135,0.432-0.189,0.654c-0.014,0.056-0.031,0.112-0.043,0.168
		c-0.06,0.276-0.108,0.556-0.137,0.842c-0.001,0.009,0,0.018-0.001,0.027C0.014,67.621,0,67.864,0,68.111
		c0,0.034,0.002,0.067,0.003,0.101c0,0.026,0.001,0.052,0.002,0.078c0.049,8.421,3.575,17.322,9.548,23.881v82.739
		c0,12.822,10.432,23.254,23.254,23.254h15.986h30.234h91.272c12.822,0,23.254-10.432,23.254-23.254V92.17
		C199.387,85.764,202.881,77.125,203.087,68.879z M186.496,75.611c-2.594,6.186-8.056,11.513-14.403,11.513
		c-7.266,0-13.408-4.869-15.358-11.513H186.496z M30.913,24.627c0.992-2.79,3.647-4.665,6.608-4.665h128.063
		c2.961,0,5.617,1.875,6.608,4.665l12.788,35.983H18.125L30.913,24.627z M140.424,75.611c-1.951,6.644-8.092,11.513-15.358,11.513
		s-13.408-4.869-15.358-11.513H140.424z M93.398,75.611c-1.951,6.644-8.092,11.513-15.358,11.513s-13.408-4.869-15.358-11.513
		H93.398z M46.371,75.611c-1.951,6.644-8.092,11.513-15.358,11.513c-6.348,0-11.809-5.327-14.403-11.513H46.371z M56.292,183.163
		v-46.817h15.234v46.817H56.292z M170.299,183.163H86.526v-54.317c0-4.143-3.358-7.5-7.5-7.5H48.792c-4.142,0-7.5,3.357-7.5,7.5
		v54.317h-8.486c-4.551,0-8.254-3.703-8.254-8.254v-73.562c2.062,0.503,4.219,0.776,6.46,0.776c9.395,0,17.821-4.205,23.513-10.825
		c5.692,6.62,14.118,10.825,23.513,10.825s17.821-4.205,23.513-10.825c5.692,6.62,14.118,10.825,23.513,10.825
		s17.821-4.205,23.513-10.825c5.692,6.62,14.118,10.825,23.513,10.825c2.242,0,4.399-0.273,6.46-0.776v73.562
		C178.553,179.46,174.85,183.163,170.299,183.163z"/>
</g>
<g>
</g>
<g>
</g>
<g>
</g>
<g>
</g>
<g>
</g>
<g>
</g>
<g>
</g>
<g>
</g>
<g>
</g>
<g>
</g>
<g>
</g>
<g>
</g>
<g>
</g>
<g>
</g>
<g>
</g>
</svg>
