<?xml version="1.0" encoding="iso-8859-1"?>
<!-- Generator: Adobe Illustrator 18.0.0, SVG Export Plug-In . SVG Version: 6.00 Build 0)  -->
<!DOCTYPE svg PUBLIC "-//W3C//DTD SVG 1.1//EN" "http://www.w3.org/Graphics/SVG/1.1/DTD/svg11.dtd">
<svg version="1.1" id="Capa_1" xmlns="http://www.w3.org/2000/svg" xmlns:xlink="http://www.w3.org/1999/xlink" x="0px" y="0px"
	 viewBox="0 0 142.729 142.729" style="enable-background:new 0 0 142.729 142.729;" xml:space="preserve">
<g>
	<path style="fill:#1D1D1B;" d="M120.558,49.044H22.173C9.946,49.044,0,58.99,0,71.216v0.297c0,12.226,9.946,22.172,22.173,22.172
		h98.385c12.226,0,22.172-9.946,22.172-22.172v-0.297C142.729,58.99,132.783,49.044,120.558,49.044z M127.729,71.513
		c0,3.955-3.218,7.172-7.172,7.172H22.173c-3.955,0-7.173-3.217-7.173-7.172v-0.297c0-3.955,3.218-7.172,7.173-7.172h98.385
		c3.954,0,7.172,3.217,7.172,7.172V71.513z"/>
</g>
<g>
</g>
<g>
</g>
<g>
</g>
<g>
</g>
<g>
</g>
<g>
</g>
<g>
</g>
<g>
</g>
<g>
</g>
<g>
</g>
<g>
</g>
<g>
</g>
<g>
</g>
<g>
</g>
<g>
</g>
</svg>
