<?xml version="1.0" encoding="iso-8859-1"?>
<!-- Generator: Adobe Illustrator 18.0.0, SVG Export Plug-In . SVG Version: 6.00 Build 0)  -->
<!DOCTYPE svg PUBLIC "-//W3C//DTD SVG 1.1//EN" "http://www.w3.org/Graphics/SVG/1.1/DTD/svg11.dtd">
<svg version="1.1" id="Capa_1" xmlns="http://www.w3.org/2000/svg" xmlns:xlink="http://www.w3.org/1999/xlink" x="0px" y="0px"
	 viewBox="0 0 145.317 145.317" style="enable-background:new 0 0 145.317 145.317;" xml:space="preserve">
<g>
	<path style="fill:#1D1D1B;" d="M72.659,47.733c-13.744,0-24.925,11.182-24.925,24.926c0,13.743,11.182,24.925,24.925,24.925
		s24.925-11.182,24.925-24.925C97.584,58.915,86.402,47.733,72.659,47.733z M72.659,82.584c-5.473,0-9.925-4.452-9.925-9.925
		s4.453-9.926,9.925-9.926s9.925,4.453,9.925,9.926S78.131,82.584,72.659,82.584z"/>
	<path style="fill:#1D1D1B;" d="M72.659,37.383c4.142,0,7.5-3.357,7.5-7.5V7.5c0-4.143-3.358-7.5-7.5-7.5s-7.5,3.357-7.5,7.5v22.383
		C65.159,34.025,68.517,37.383,72.659,37.383z"/>
	<path style="fill:#1D1D1B;" d="M102.906,49.912c1.919,0,3.839-0.732,5.303-2.196l19.363-19.362c2.929-2.93,2.929-7.678,0-10.607
		c-2.929-2.928-7.678-2.928-10.606,0L97.603,37.108c-2.929,2.93-2.929,7.678,0,10.607C99.067,49.18,100.986,49.912,102.906,49.912z"
		/>
	<path style="fill:#1D1D1B;" d="M137.817,65.159h-22.382c-4.142,0-7.5,3.357-7.5,7.5s3.358,7.5,7.5,7.5h22.382
		c4.142,0,7.5-3.357,7.5-7.5S141.959,65.159,137.817,65.159z"/>
	<path style="fill:#1D1D1B;" d="M108.209,97.603c-2.929-2.928-7.678-2.928-10.606,0c-2.929,2.93-2.929,7.678,0,10.607l19.362,19.362
		c1.464,1.464,3.384,2.196,5.303,2.196s3.839-0.732,5.303-2.196c2.929-2.93,2.929-7.678,0-10.607L108.209,97.603z"/>
	<path style="fill:#1D1D1B;" d="M72.659,107.936c-4.142,0-7.5,3.357-7.5,7.5v22.382c0,4.143,3.358,7.5,7.5,7.5s7.5-3.357,7.5-7.5
		v-22.382C80.159,111.293,76.801,107.936,72.659,107.936z"/>
	<path style="fill:#1D1D1B;" d="M37.108,97.603l-19.362,19.362c-2.929,2.93-2.929,7.678,0,10.607
		c1.464,1.464,3.384,2.196,5.303,2.196s3.839-0.732,5.303-2.196l19.362-19.362c2.929-2.93,2.929-7.678,0-10.607
		C44.786,94.675,40.037,94.675,37.108,97.603z"/>
	<path style="fill:#1D1D1B;" d="M37.382,72.659c0-4.143-3.358-7.5-7.5-7.5H7.5c-4.142,0-7.5,3.357-7.5,7.5s3.358,7.5,7.5,7.5h22.382
		C34.024,80.159,37.382,76.802,37.382,72.659z"/>
	<path style="fill:#1D1D1B;" d="M37.108,47.716c1.464,1.464,3.384,2.196,5.303,2.196s3.839-0.732,5.303-2.196
		c2.929-2.93,2.929-7.678,0-10.607L28.352,17.746c-2.929-2.928-7.678-2.928-10.606,0c-2.929,2.93-2.929,7.678,0,10.607
		L37.108,47.716z"/>
</g>
<g>
</g>
<g>
</g>
<g>
</g>
<g>
</g>
<g>
</g>
<g>
</g>
<g>
</g>
<g>
</g>
<g>
</g>
<g>
</g>
<g>
</g>
<g>
</g>
<g>
</g>
<g>
</g>
<g>
</g>
</svg>
