<?xml version="1.0" encoding="iso-8859-1"?>
<!-- Generator: Adobe Illustrator 18.0.0, SVG Export Plug-In . SVG Version: 6.00 Build 0)  -->
<!DOCTYPE svg PUBLIC "-//W3C//DTD SVG 1.1//EN" "http://www.w3.org/Graphics/SVG/1.1/DTD/svg11.dtd">
<svg version="1.1" id="Capa_1" xmlns="http://www.w3.org/2000/svg" xmlns:xlink="http://www.w3.org/1999/xlink" x="0px" y="0px"
	 viewBox="0 0 261.574 261.574" style="enable-background:new 0 0 261.574 261.574;" xml:space="preserve">
<g>
	<path style="fill:#1D1D1B;" d="M254.074,35.907H130.787H7.5c-4.142,0-7.5,3.357-7.5,7.5v174.76c0,4.143,3.358,7.5,7.5,7.5h123.287
		h123.287c4.142,0,7.5-3.357,7.5-7.5V43.407C261.574,39.265,258.216,35.907,254.074,35.907z M15,50.907h108.287v159.76H15V50.907z
		 M246.574,210.667H138.287V50.907h108.287V210.667z"/>
	<path style="fill:#1D1D1B;" d="M167.627,96.935h49.606c4.142,0,7.5-3.357,7.5-7.5s-3.358-7.5-7.5-7.5h-49.606
		c-4.142,0-7.5,3.357-7.5,7.5S163.485,96.935,167.627,96.935z"/>
	<path style="fill:#1D1D1B;" d="M167.627,138.287h49.606c4.142,0,7.5-3.357,7.5-7.5s-3.358-7.5-7.5-7.5h-49.606
		c-4.142,0-7.5,3.357-7.5,7.5S163.485,138.287,167.627,138.287z"/>
	<path style="fill:#1D1D1B;" d="M167.627,179.64h49.606c4.142,0,7.5-3.357,7.5-7.5s-3.358-7.5-7.5-7.5h-49.606
		c-4.142,0-7.5,3.357-7.5,7.5S163.485,179.64,167.627,179.64z"/>
	<path style="fill:#1D1D1B;" d="M93.947,81.935H44.34c-4.142,0-7.5,3.357-7.5,7.5s3.358,7.5,7.5,7.5h49.606
		c4.142,0,7.5-3.357,7.5-7.5S98.089,81.935,93.947,81.935z"/>
	<path style="fill:#1D1D1B;" d="M93.947,123.287H44.34c-4.142,0-7.5,3.357-7.5,7.5s3.358,7.5,7.5,7.5h49.606
		c4.142,0,7.5-3.357,7.5-7.5S98.089,123.287,93.947,123.287z"/>
	<path style="fill:#1D1D1B;" d="M93.947,164.64H44.34c-4.142,0-7.5,3.357-7.5,7.5s3.358,7.5,7.5,7.5h49.606
		c4.142,0,7.5-3.357,7.5-7.5S98.089,164.64,93.947,164.64z"/>
</g>
<g>
</g>
<g>
</g>
<g>
</g>
<g>
</g>
<g>
</g>
<g>
</g>
<g>
</g>
<g>
</g>
<g>
</g>
<g>
</g>
<g>
</g>
<g>
</g>
<g>
</g>
<g>
</g>
<g>
</g>
</svg>
