<?xml version="1.0" encoding="iso-8859-1"?>
<!-- Generator: Adobe Illustrator 18.0.0, SVG Export Plug-In . SVG Version: 6.00 Build 0)  -->
<!DOCTYPE svg PUBLIC "-//W3C//DTD SVG 1.1//EN" "http://www.w3.org/Graphics/SVG/1.1/DTD/svg11.dtd">
<svg version="1.1" id="Capa_1" xmlns="http://www.w3.org/2000/svg" xmlns:xlink="http://www.w3.org/1999/xlink" x="0px" y="0px"
	 viewBox="0 0 225 225" style="enable-background:new 0 0 225 225;" xml:space="preserve">
<g>
	<path style="fill:#1D1D1B;" d="M202.382,190.608l-6.453-147.973C194.886,18.728,175.324,0,151.393,0H73.607
		C49.676,0,30.115,18.728,29.071,42.636l-6.453,147.973c-0.005,0.109-0.007,0.218-0.007,0.327c0,18.784,15.281,34.065,34.065,34.065
		h111.648c18.783,0,34.064-15.281,34.064-34.065C202.389,190.826,202.387,190.717,202.382,190.608z M44.057,43.29
		C44.749,27.426,57.729,15,73.607,15h77.786c15.878,0,28.858,12.426,29.55,28.289l5.758,132.044H38.299L44.057,43.29z M168.325,210
		H56.676c-10.463,0-18.984-8.472-19.064-18.915l0.033-0.751h149.711l0.033,0.751C187.308,201.528,178.787,210,168.325,210z"/>
</g>
<g>
</g>
<g>
</g>
<g>
</g>
<g>
</g>
<g>
</g>
<g>
</g>
<g>
</g>
<g>
</g>
<g>
</g>
<g>
</g>
<g>
</g>
<g>
</g>
<g>
</g>
<g>
</g>
<g>
</g>
</svg>
