<?xml version="1.0" encoding="iso-8859-1"?>
<!-- Generator: Adobe Illustrator 18.0.0, SVG Export Plug-In . SVG Version: 6.00 Build 0)  -->
<!DOCTYPE svg PUBLIC "-//W3C//DTD SVG 1.1//EN" "http://www.w3.org/Graphics/SVG/1.1/DTD/svg11.dtd">
<svg version="1.1" id="Capa_1" xmlns="http://www.w3.org/2000/svg" xmlns:xlink="http://www.w3.org/1999/xlink" x="0px" y="0px"
	 viewBox="0 0 167.82 167.82" style="enable-background:new 0 0 167.82 167.82;" xml:space="preserve">
<g>
	<path style="fill:#1D1D1B;" d="M83.91,86.872c-4.143,0-7.5,3.357-7.5,7.5v32.856c0,4.143,3.357,7.5,7.5,7.5s7.5-3.357,7.5-7.5
		V94.372C91.41,90.23,88.052,86.872,83.91,86.872z"/>
	<path style="fill:#1D1D1B;" d="M118.377,53.781H54.651c-4.666-14.99,3.145-31.253,18.025-36.846
		c7.475-2.809,15.596-2.538,22.864,0.76c7.271,3.298,12.822,9.23,15.631,16.704c1.458,3.877,5.783,5.837,9.659,4.382
		c3.877-1.457,5.839-5.781,4.382-9.659c-4.218-11.224-12.555-20.134-23.475-25.087C90.818-0.92,78.624-1.325,67.399,2.894
		C45.682,11.057,33.985,34.352,39.773,56.32c-6.038,3.396-10.132,9.857-10.132,17.264v74.434c0,10.919,8.884,19.803,19.803,19.803
		h68.934c10.919,0,19.803-8.884,19.803-19.803V73.583C138.179,62.664,129.296,53.781,118.377,53.781z M123.179,148.017
		c0,2.648-2.154,4.803-4.803,4.803H49.443c-2.648,0-4.803-2.154-4.803-4.803V73.583c0-2.648,2.154-4.803,4.803-4.803h68.934
		c2.648,0,4.803,2.154,4.803,4.803V148.017z"/>
</g>
<g>
</g>
<g>
</g>
<g>
</g>
<g>
</g>
<g>
</g>
<g>
</g>
<g>
</g>
<g>
</g>
<g>
</g>
<g>
</g>
<g>
</g>
<g>
</g>
<g>
</g>
<g>
</g>
<g>
</g>
</svg>
