<?xml version="1.0" encoding="iso-8859-1"?>
<!-- Generator: Adobe Illustrator 18.0.0, SVG Export Plug-In . SVG Version: 6.00 Build 0)  -->
<!DOCTYPE svg PUBLIC "-//W3C//DTD SVG 1.1//EN" "http://www.w3.org/Graphics/SVG/1.1/DTD/svg11.dtd">
<svg version="1.1" id="Capa_1" xmlns="http://www.w3.org/2000/svg" xmlns:xlink="http://www.w3.org/1999/xlink" x="0px" y="0px"
	 viewBox="0 0 208.86 208.86" style="enable-background:new 0 0 208.86 208.86;" xml:space="preserve">
<g>
	<path style="fill:#1D1D1B;" d="M107.002,134.406c2.491,3.309,7.194,3.972,10.503,1.479c3.309-2.492,3.972-7.194,1.479-10.503
		l-19.003-25.236c-3.144-4.175-7.933-6.563-13.153-6.563c-0.035,0-0.07,0-0.105,0c-5.262,0.032-10.065,2.484-13.18,6.728
		l-18.519,25.243c-2.45,3.34-1.729,8.034,1.61,10.484c1.337,0.98,2.891,1.453,4.431,1.453c2.307,0,4.584-1.061,6.053-3.064
		l12.234-16.676l0.052,56.411c0.004,4.14,3.361,7.493,7.5,7.493h0.007c4.143-0.004,7.497-3.365,7.493-7.507l-0.052-56.541
		L107.002,134.406z"/>
	<path style="fill:#1D1D1B;" d="M161.896,66.67h-28.896c-1.635-9.713-6.188-18.647-13.192-25.693
		c-8.829-8.881-20.584-13.772-33.1-13.772c-23.516,0-43.063,17.4-46.447,40.011c-10.02,1.517-19.25,6.124-26.487,13.319
		C4.892,89.364,0,101.119,0,113.635c0,25.874,21.065,46.943,46.966,46.965h18.068c4.143,0,7.5-3.358,7.5-7.5s-3.357-7.5-7.5-7.5
		H46.973C29.343,145.585,15,131.245,15,113.635c0-17.634,14.066-31.666,32.031-31.965l0.224,0c4.134-0.007,7.482-3.359,7.486-7.493
		c0.016-17.629,14.355-31.972,31.966-31.972c17.649,0,31.69,14.091,31.966,32.08c0.063,4.097,3.401,7.385,7.499,7.385h35.724
		c17.626,0,31.965,14.339,31.965,31.965S179.521,145.6,161.896,145.6l-53.865,0c-4.143,0-7.5,3.358-7.5,7.5s3.358,7.5,7.5,7.5
		l53.865,0c25.896,0,46.965-21.068,46.965-46.965S187.792,66.67,161.896,66.67z"/>
</g>
<g>
</g>
<g>
</g>
<g>
</g>
<g>
</g>
<g>
</g>
<g>
</g>
<g>
</g>
<g>
</g>
<g>
</g>
<g>
</g>
<g>
</g>
<g>
</g>
<g>
</g>
<g>
</g>
<g>
</g>
</svg>
