<?xml version="1.0" encoding="iso-8859-1"?>
<!-- Generator: Adobe Illustrator 18.0.0, SVG Export Plug-In . SVG Version: 6.00 Build 0)  -->
<!DOCTYPE svg PUBLIC "-//W3C//DTD SVG 1.1//EN" "http://www.w3.org/Graphics/SVG/1.1/DTD/svg11.dtd">
<svg version="1.1" id="Capa_1" xmlns="http://www.w3.org/2000/svg" xmlns:xlink="http://www.w3.org/1999/xlink" x="0px" y="0px"
	 viewBox="0 0 188.822 188.822" style="enable-background:new 0 0 188.822 188.822;" xml:space="preserve">
<g>
	<path style="fill:#1D1D1B;" d="M122.732,41.57V7.5c0-4.142-3.358-7.5-7.5-7.5H74.254c-4.142,0-7.5,3.358-7.5,7.5v34.048
		C53.916,41.903,43.58,52.449,43.58,65.371v99.61c0,13.146,10.695,23.84,23.841,23.84h53.981c13.146,0,23.84-10.695,23.84-23.84
		v-99.61C145.242,52.672,135.261,42.263,122.732,41.57z M81.754,15h25.979v26.531H81.754V15z M130.242,164.981
		c0,4.875-3.966,8.84-8.84,8.84H67.421c-4.875,0-8.841-3.966-8.841-8.84v-99.61c0-4.875,3.966-8.84,8.841-8.84h6.833h40.979h6.169
		c4.875,0,8.84,3.966,8.84,8.84V164.981z"/>
</g>
<g>
</g>
<g>
</g>
<g>
</g>
<g>
</g>
<g>
</g>
<g>
</g>
<g>
</g>
<g>
</g>
<g>
</g>
<g>
</g>
<g>
</g>
<g>
</g>
<g>
</g>
<g>
</g>
<g>
</g>
</svg>
