<?xml version="1.0" encoding="iso-8859-1"?>
<!-- Generator: Adobe Illustrator 18.0.0, SVG Export Plug-In . SVG Version: 6.00 Build 0)  -->
<!DOCTYPE svg PUBLIC "-//W3C//DTD SVG 1.1//EN" "http://www.w3.org/Graphics/SVG/1.1/DTD/svg11.dtd">
<svg version="1.1" id="Capa_1" xmlns="http://www.w3.org/2000/svg" xmlns:xlink="http://www.w3.org/1999/xlink" x="0px" y="0px"
	 viewBox="0 0 248.961 248.961" style="enable-background:new 0 0 248.961 248.961;" xml:space="preserve">
<g>
	<path style="fill:#1D1D1B;" d="M207.067,132.816c-1.935-1.936-4-3.768-6.135-5.445l-86.637-68.058
		c-0.001-0.001-0.002-0.001-0.003-0.002L95.391,44.463c-0.024-0.019-0.048-0.038-0.072-0.056
		C80.99,33.213,61.374,31.968,45.835,40.249c-1.391-4.043-2.116-8.315-2.116-12.643c0-5.906,1.291-11.572,3.836-16.842
		c1.802-3.73,0.239-8.214-3.491-10.016C40.335-1.053,35.85,0.51,34.048,4.239c-3.537,7.321-5.33,15.183-5.33,23.367
		c0,7.719,1.66,15.313,4.826,22.273c-13.508,15.066-15.468,37.759-4.443,54.905l15.972,24.84l56.616,88.055
		c2.624,4.081,5.706,7.901,9.161,11.355c12.85,12.851,29.936,19.928,48.109,19.928c18.173,0,35.258-7.077,48.108-19.928
		c12.851-12.85,19.928-29.936,19.928-48.109C226.995,162.752,219.917,145.666,207.067,132.816z M62.653,106.301l1.274,11.267
		c-2.738,0.474-5.539,0.689-8.342,0.67L41.719,96.671c-7.678-11.941-5.951-27.909,4.107-37.966
		c10.826-10.826,28.306-11.826,40.266-2.472l0.941,0.766c0.186,0.151,0.376,0.292,0.571,0.422l14.86,11.673
		c0.186,3.523-0.02,7.076-0.619,10.549L90.584,78.37c-2.432-0.275-4.839,0.652-6.458,2.482c-1.62,1.831-2.247,4.335-1.679,6.713
		l3.325,13.923l-13.924-3.325c-2.375-0.567-4.882,0.059-6.712,1.679C63.305,101.462,62.379,103.873,62.653,106.301z M196.46,218.427
		c-10.017,10.017-23.336,15.534-37.502,15.534c-14.167,0-27.485-5.517-37.503-15.535c-2.699-2.699-5.105-5.68-7.15-8.861
		l-49.478-76.953c3.229-0.469,6.415-1.194,9.534-2.17c3.43-1.073,5.617-4.429,5.213-8l-0.815-7.207l12.287,2.934l2.88,0.958
		c2.693,0.896,5.663,0.194,7.669-1.813c2.007-2.007,2.71-4.976,1.814-7.669l-0.958-2.882l-2.934-12.288l7.207,0.815
		c3.578,0.407,6.927-1.783,8-5.213c0.981-3.135,1.708-6.367,2.176-9.642l74.764,58.73c1.667,1.31,3.281,2.742,4.795,4.256
		c10.017,10.018,15.534,23.336,15.534,37.502S206.478,208.41,196.46,218.427z"/>
	<path style="fill:#1D1D1B;" d="M179.067,202.029c-5.106,5.106-11.895,7.919-19.116,7.919c-7.221,0-14.01-2.813-19.117-7.92
		c-1.377-1.376-2.604-2.897-3.647-4.519l-10.206-15.873l-12.617,8.112l10.206,15.873c1.622,2.521,3.525,4.881,5.658,7.014
		c7.939,7.939,18.495,12.313,29.723,12.313c11.229,0,21.784-4.373,29.724-12.313c2.929-2.929,2.928-7.678,0-10.607
		C186.745,199.1,181.997,199.101,179.067,202.029z"/>
</g>
<g>
</g>
<g>
</g>
<g>
</g>
<g>
</g>
<g>
</g>
<g>
</g>
<g>
</g>
<g>
</g>
<g>
</g>
<g>
</g>
<g>
</g>
<g>
</g>
<g>
</g>
<g>
</g>
<g>
</g>
</svg>
