<?xml version="1.0" encoding="iso-8859-1"?>
<!-- Generator: Adobe Illustrator 18.0.0, SVG Export Plug-In . SVG Version: 6.00 Build 0)  -->
<!DOCTYPE svg PUBLIC "-//W3C//DTD SVG 1.1//EN" "http://www.w3.org/Graphics/SVG/1.1/DTD/svg11.dtd">
<svg version="1.1" id="Capa_1" xmlns="http://www.w3.org/2000/svg" xmlns:xlink="http://www.w3.org/1999/xlink" x="0px" y="0px"
	 viewBox="0 0 209.438 209.438" style="enable-background:new 0 0 209.438 209.438;" xml:space="preserve">
<g>
	<path style="fill:#1D1D1B;" d="M143.425,0H66.013C45.007,0,27.917,17.09,27.917,38.096v58.587c0,21.006,17.09,38.096,38.096,38.096
		h10.373v14.11h-18.57c-4.143,0-7.5,3.357-7.5,7.5v0.456c0,29,23.593,52.593,52.593,52.593h3.621c29,0,52.593-23.593,52.593-52.593
		v-0.456c0-4.143-3.357-7.5-7.5-7.5h-18.57v-14.11h10.373c21.006,0,38.096-17.09,38.096-38.096V38.096
		C181.521,17.09,164.431,0,143.425,0z M106.529,194.438h-3.621c-18.322,0-33.625-13.175-36.931-30.549h77.482
		C140.154,181.263,124.852,194.438,106.529,194.438z M118.052,148.889H91.386v-14.11h26.666V148.889z M166.521,96.683
		c0,12.735-10.36,23.096-23.096,23.096H66.013c-12.735,0-23.096-10.36-23.096-23.096V38.096C42.917,25.36,53.277,15,66.013,15
		h77.412c12.735,0,23.096,10.36,23.096,23.096V96.683z"/>
	<path style="fill:#1D1D1B;" d="M104.719,23.857c-24.003,0-43.531,19.528-43.531,43.531c0,24.004,19.528,43.532,43.531,43.532
		s43.531-19.528,43.531-43.532C148.25,43.386,128.722,23.857,104.719,23.857z M104.719,95.921c-15.732,0-28.531-12.8-28.531-28.532
		s12.799-28.531,28.531-28.531s28.531,12.799,28.531,28.531S120.451,95.921,104.719,95.921z"/>
	<path style="fill:#1D1D1B;" d="M104.719,47.063c-11.208,0-20.326,9.118-20.326,20.326s9.118,20.327,20.326,20.327
		s20.326-9.119,20.326-20.327S115.927,47.063,104.719,47.063z M104.719,72.716c-2.937,0-5.326-2.39-5.326-5.327
		c0-2.937,2.39-5.326,5.326-5.326s5.326,2.39,5.326,5.326C110.045,70.326,107.655,72.716,104.719,72.716z"/>
</g>
<g>
</g>
<g>
</g>
<g>
</g>
<g>
</g>
<g>
</g>
<g>
</g>
<g>
</g>
<g>
</g>
<g>
</g>
<g>
</g>
<g>
</g>
<g>
</g>
<g>
</g>
<g>
</g>
<g>
</g>
</svg>
