<?xml version="1.0" encoding="iso-8859-1"?>
<!-- Generator: Adobe Illustrator 18.0.0, SVG Export Plug-In . SVG Version: 6.00 Build 0)  -->
<!DOCTYPE svg PUBLIC "-//W3C//DTD SVG 1.1//EN" "http://www.w3.org/Graphics/SVG/1.1/DTD/svg11.dtd">
<svg version="1.1" id="Capa_1" xmlns="http://www.w3.org/2000/svg" xmlns:xlink="http://www.w3.org/1999/xlink" x="0px" y="0px"
	 viewBox="0 0 163.693 163.693" style="enable-background:new 0 0 163.693 163.693;" xml:space="preserve">
<g>
	<path style="fill:#1D1D1B;" d="M149.113,47.856c-0.091-0.338-0.199-0.67-0.335-0.987C138.808,19.554,112.569,0,81.847,0
		C51.127,0,24.89,19.551,14.918,46.862c-0.139,0.323-0.248,0.661-0.341,1.006c-2.55,7.322-3.953,15.176-3.953,23.356v84.97
		c0,4.143,3.358,7.5,7.5,7.5s7.5-3.357,7.5-7.5v-41.325c3.651,4.693,7.873,8.916,12.565,12.568c-0.149,0.59-0.237,1.204-0.237,1.84
		v26.917c0,4.143,3.358,7.5,7.5,7.5s7.5-3.357,7.5-7.5v-19.896c2.986,1.331,6.079,2.46,9.263,3.375v16.521
		c0,4.143,3.358,7.5,7.5,7.5s7.5-3.357,7.5-7.5v-13.914c1.533,0.099,3.074,0.167,4.632,0.167c1.557,0,3.099-0.068,4.631-0.167
		v13.914c0,4.143,3.358,7.5,7.5,7.5s7.5-3.357,7.5-7.5v-16.521c3.185-0.915,6.277-2.044,9.263-3.375v19.895
		c0,4.143,3.358,7.5,7.5,7.5s7.5-3.357,7.5-7.5v-26.917c0-0.636-0.088-1.25-0.237-1.84c4.692-3.652,8.914-7.875,12.565-12.568
		v41.325c0,4.143,3.358,7.5,7.5,7.5s7.5-3.357,7.5-7.5v-84.97C153.07,63.04,151.665,55.181,149.113,47.856z M81.847,15
		c20.436,0,38.357,10.963,48.2,27.314H33.646C43.49,25.963,61.41,15,81.847,15z M81.847,127.446
		c-31.002,0-56.224-25.222-56.224-56.223c0-4.799,0.607-9.459,1.744-13.909h108.959c1.137,4.45,1.744,9.11,1.744,13.909
		C138.07,102.225,112.848,127.446,81.847,127.446z"/>
	<circle style="fill:#1D1D1B;" cx="60.768" cy="76.223" r="9"/>
	<circle style="fill:#1D1D1B;" cx="102.926" cy="76.223" r="9"/>
</g>
<g>
</g>
<g>
</g>
<g>
</g>
<g>
</g>
<g>
</g>
<g>
</g>
<g>
</g>
<g>
</g>
<g>
</g>
<g>
</g>
<g>
</g>
<g>
</g>
<g>
</g>
<g>
</g>
<g>
</g>
</svg>
