<?xml version="1.0" encoding="iso-8859-1"?>
<!-- Generator: Adobe Illustrator 18.0.0, SVG Export Plug-In . SVG Version: 6.00 Build 0)  -->
<!DOCTYPE svg PUBLIC "-//W3C//DTD SVG 1.1//EN" "http://www.w3.org/Graphics/SVG/1.1/DTD/svg11.dtd">
<svg version="1.1" id="Capa_1" xmlns="http://www.w3.org/2000/svg" xmlns:xlink="http://www.w3.org/1999/xlink" x="0px" y="0px"
	 viewBox="0 0 196.861 196.861" style="enable-background:new 0 0 196.861 196.861;" xml:space="preserve">
<g>
	<path style="fill:#1D1D1B;" d="M98.431,0C44.156,0,0,44.156,0,98.431s44.156,98.431,98.431,98.431s98.431-44.156,98.431-98.431
		S152.706,0,98.431,0z M173.436,134.931h-24.939c3.152-9.356,5.141-19.105,5.819-29h27.192
		C180.583,116.248,177.785,126.031,173.436,134.931z M98.742,179.715c-11.162-8.116-20.363-18.277-27.243-29.784h53.75
		C118.469,161.411,109.492,171.618,98.742,179.715z M64.156,134.931c-3.583-9.185-5.825-18.942-6.581-29h81.698
		c-0.783,9.958-3.078,19.738-6.708,29H64.156z M23.425,61.931h24.98c-3.194,9.369-5.204,19.119-5.874,29H15.354
		C16.278,80.613,19.077,70.83,23.425,61.931z M98.487,17.159c11.074,8.129,20.199,18.286,27.02,29.771H71.776
		C78.614,35.498,87.66,25.297,98.487,17.159z M132.799,61.931c3.558,9.192,5.775,18.949,6.507,29H57.577
		c0.776-9.939,3.098-19.721,6.785-29H132.799z M15.354,105.931h27.177c0.652,9.983,2.586,19.715,5.677,29H23.425
		C19.077,126.031,16.278,116.248,15.354,105.931z M154.35,90.931c-0.631-9.978-2.546-19.71-5.618-29h24.704
		c4.348,8.899,7.147,18.683,8.071,29H154.35z M163.996,46.931h-21.418c-5.119-10.327-11.786-19.869-19.813-28.301
		C139.254,23.668,153.575,33.693,163.996,46.931z M74.613,18.483c-8.009,8.492-14.726,18.109-19.923,28.448H32.865
		C43.394,33.555,57.908,23.469,74.613,18.483z M32.865,149.931H54.4c5.172,10.373,11.911,19.947,20.023,28.394
		C57.798,173.319,43.354,163.256,32.865,149.931z M122.666,178.26c7.882-8.444,14.499-18.018,19.621-28.329h21.709
		C153.555,163.195,139.196,173.231,122.666,178.26z"/>
</g>
<g>
</g>
<g>
</g>
<g>
</g>
<g>
</g>
<g>
</g>
<g>
</g>
<g>
</g>
<g>
</g>
<g>
</g>
<g>
</g>
<g>
</g>
<g>
</g>
<g>
</g>
<g>
</g>
<g>
</g>
</svg>
